<?xml version="1.0" encoding="UTF-8" standalone="no"?>
<svg
   width="708.75"
   height="285"
   viewBox="0 0 708.75 285"
   version="1.2"
   id="svg39"
   xmlns:xlink="http://www.w3.org/1999/xlink"
   xmlns="http://www.w3.org/2000/svg"
   xmlns:svg="http://www.w3.org/2000/svg">
  <defs
     id="defs19">
    <clipPath
       id="d">
      <path
         d="m 0,67 h 93 v 93 H 0 Z m 0,0"
         id="path1" />
    </clipPath>
    <clipPath
       id="e">
      <path
         d="m 46.3,67.414 q -2.254,0 -4.503,0.223 a 46.3,46.3 0 0 0 -8.832,1.754 47,47 0 0 0 -4.246,1.515 46.2,46.2 0 0 0 -11.566,6.918 45,45 0 0 0 -3.34,3.024 45,45 0 0 0 -3.028,3.336 45,45 0 0 0 -2.687,3.613 47,47 0 0 0 -2.32,3.86 46,46 0 0 0 -1.926,4.07 45.5,45.5 0 0 0 -2.613,8.602 45.4,45.4 0 0 0 -0.883,8.945 45.4,45.4 0 0 0 0.882,8.949 45,45 0 0 0 1.094,4.363 46.4,46.4 0 0 0 3.445,8.309 47,47 0 0 0 2.32,3.859 45,45 0 0 0 2.688,3.613 45,45 0 0 0 3.028,3.336 45,45 0 0 0 3.34,3.024 46.2,46.2 0 0 0 11.566,6.918 47,47 0 0 0 4.246,1.515 46.3,46.3 0 0 0 13.336,1.977 q 2.261,0 4.504,-0.223 2.248,-0.221 4.46,-0.66 a 46,46 0 0 0 4.376,-1.094 45.6,45.6 0 0 0 8.32,-3.441 45,45 0 0 0 3.867,-2.313 46,46 0 0 0 3.625,-2.68 46,46 0 0 0 6.367,-6.359 45.4,45.4 0 0 0 5.004,-7.473 46,46 0 0 0 1.93,-4.07 46,46 0 0 0 1.52,-4.238 q 0.654,-2.155 1.093,-4.363 a 46,46 0 0 0 0.664,-4.453 47,47 0 0 0 0.219,-4.497 q 0.001,-2.249 -0.227,-4.492 a 46,46 0 0 0 -0.664,-4.449 45.4,45.4 0 0 0 -2.62,-8.598 45,45 0 0 0 -1.93,-4.066 45.4,45.4 0 0 0 -5.004,-7.473 46.1,46.1 0 0 0 -9.989,-9.035 47,47 0 0 0 -3.863,-2.316 46,46 0 0 0 -4.074,-1.922 45,45 0 0 0 -4.246,-1.52 45,45 0 0 0 -4.371,-1.097 46.3,46.3 0 0 0 -8.961,-0.89 m 0,74.059 a 28.5,28.5 0 0 1 -5.51,-0.543 28,28 0 0 1 -5.3,-1.605 28,28 0 0 1 -2.506,-1.18 28,28 0 0 1 -2.379,-1.426 28,28 0 0 1 -2.226,-1.649 27,27 0 0 1 -2.055,-1.855 27,27 0 0 1 -1.863,-2.05 28.1,28.1 0 0 1 -4.262,-7.098 28,28 0 0 1 -0.937,-2.606 28.2,28.2 0 0 1 0,-16.371 q 0.406,-1.326 0.933,-2.606 a 28.2,28.2 0 0 1 6.125,-9.148 29,29 0 0 1 2.055,-1.86 28.1,28.1 0 0 1 7.113,-4.254 29,29 0 0 1 2.61,-0.933 29,29 0 0 1 2.691,-0.672 c 0.906,-0.18 1.82,-0.312 2.742,-0.406 0.918,-0.09 1.844,-0.133 2.77,-0.133 q 1.387,-10e-4 2.77,0.133 1.376,0.14 2.742,0.406 1.358,0.272 2.687,0.672 1.331,0.405 2.61,0.934 a 28.2,28.2 0 0 1 9.167,6.113 27.7,27.7 0 0 1 3.512,4.273 q 0.775,1.151 1.426,2.371 a 28,28 0 0 1 2.12,5.11 q 0.404,1.324 0.673,2.683 a 28.2,28.2 0 0 1 0.406,8.266 29,29 0 0 1 -0.41,2.734 q -0.27,1.36 -0.676,2.684 -0.406,1.324 -0.933,2.602 -0.532,1.282 -1.188,2.5 a 28,28 0 0 1 -4.937,6.644 29,29 0 0 1 -2.055,1.86 28.5,28.5 0 0 1 -7.105,4.254 28.4,28.4 0 0 1 -5.297,1.609 q -1.36,0.27 -2.743,0.406 -1.381,0.14 -2.77,0.14 m 0,0"
         id="path2" />
    </clipPath>
    <clipPath
       id="f">
      <path
         d="m 616,67 h 92.5 v 93 H 616 Z m 0,0"
         id="path3" />
    </clipPath>
    <clipPath
       id="g">
      <path
         d="m 662.453,67.414 a 46.5,46.5 0 0 0 -8.965,0.883 46,46 0 0 0 -4.375,1.094 46,46 0 0 0 -8.32,3.441 45,45 0 0 0 -3.867,2.313 46,46 0 0 0 -3.625,2.68 46,46 0 0 0 -6.367,6.359 45.4,45.4 0 0 0 -5.004,7.473 46,46 0 0 0 -1.93,4.07 45.5,45.5 0 0 0 -2.613,8.602 46,46 0 0 0 -0.664,4.452 47,47 0 0 0 -0.22,4.492 q 10e-4,2.257 0.22,4.497 a 46,46 0 0 0 1.757,8.816 46,46 0 0 0 1.52,4.238 45,45 0 0 0 1.93,4.07 45.4,45.4 0 0 0 5.004,7.473 45,45 0 0 0 3.027,3.336 45,45 0 0 0 3.34,3.024 45.6,45.6 0 0 0 7.492,4.992 45,45 0 0 0 4.074,1.926 47,47 0 0 0 4.246,1.515 q 2.162,0.655 4.375,1.094 a 46.3,46.3 0 0 0 8.965,0.883 q 2.256,0 4.5,-0.223 c 1.5,-0.148 2.984,-0.367 4.461,-0.66 a 46,46 0 0 0 4.375,-1.094 47,47 0 0 0 4.246,-1.515 45,45 0 0 0 4.074,-1.926 45.6,45.6 0 0 0 7.493,-4.992 45,45 0 0 0 3.34,-3.024 45,45 0 0 0 3.027,-3.336 45.4,45.4 0 0 0 5.004,-7.473 45,45 0 0 0 1.93,-4.07 46,46 0 0 0 1.519,-4.238 q 0.654,-2.155 1.094,-4.363 a 46,46 0 0 0 0.664,-4.453 q 0.217,-2.24 0.218,-4.497 a 45.5,45.5 0 0 0 -0.89,-8.941 45.4,45.4 0 0 0 -2.621,-8.598 46,46 0 0 0 -1.926,-4.066 47,47 0 0 0 -2.32,-3.86 46,46 0 0 0 -2.688,-3.613 45,45 0 0 0 -3.027,-3.332 45,45 0 0 0 -3.34,-3.023 47,47 0 0 0 -3.617,-2.68 45,45 0 0 0 -3.867,-2.312 45,45 0 0 0 -4.075,-1.926 46,46 0 0 0 -4.242,-1.52 47,47 0 0 0 -4.37,-1.097 46.3,46.3 0 0 0 -8.962,-0.89 m 0,74.059 a 28.5,28.5 0 0 1 -5.512,-0.543 c -0.91,-0.18 -1.804,-0.403 -2.691,-0.672 a 27,27 0 0 1 -2.61,-0.934 28,28 0 0 1 -2.507,-1.18 q -1.225,-0.654 -2.38,-1.425 a 28,28 0 0 1 -2.226,-1.649 29,29 0 0 1 -2.054,-1.855 29,29 0 0 1 -1.864,-2.05 28.4,28.4 0 0 1 -4.261,-7.099 28,28 0 0 1 -0.934,-2.605 28,28 0 0 1 -0.672,-2.684 28,28 0 0 1 -0.41,-2.738 q -0.134,-1.377 -0.133,-2.766 -10e-4,-1.383 0.133,-2.761 c 0.094,-0.922 0.227,-1.832 0.406,-2.739 a 28.7,28.7 0 0 1 1.61,-5.289 c 0.355,-0.855 0.75,-1.687 1.183,-2.504 0.438,-0.812 0.914,-1.605 1.426,-2.37 a 29,29 0 0 1 1.652,-2.223 27,27 0 0 1 1.864,-2.051 28,28 0 0 1 4.28,-3.508 28,28 0 0 1 2.38,-1.422 29,29 0 0 1 2.504,-1.183 29,29 0 0 1 2.613,-0.934 29,29 0 0 1 2.688,-0.672 c 0.906,-0.18 1.82,-0.312 2.742,-0.406 q 1.381,-0.134 2.77,-0.133 1.387,-10e-4 2.769,0.133 1.383,0.14 2.742,0.406 1.36,0.272 2.691,0.672 1.325,0.405 2.61,0.934 a 28.23,28.23 0 0 1 15.289,15.261 q 0.534,1.28 0.933,2.606 0.405,1.324 0.676,2.683 a 28,28 0 0 1 0.543,5.5 28.4,28.4 0 0 1 -0.55,5.5 q -0.271,1.36 -0.676,2.684 -0.4,1.324 -0.934,2.602 -0.532,1.282 -1.188,2.5 -0.651,1.222 -1.425,2.375 a 28,28 0 0 1 -3.512,4.27 28.7,28.7 0 0 1 -4.277,3.508 q -1.155,0.765 -2.38,1.42 -1.22,0.651 -2.503,1.184 a 29,29 0 0 1 -5.297,1.61 q -1.359,0.27 -2.742,0.406 -1.377,0.14 -2.766,0.14 m 0,0"
         id="path4" />
    </clipPath>
    <clipPath
       id="h">
      <path
         d="m 191,67 h 93 v 93 h -93 z m 0,0"
         id="path5" />
    </clipPath>
    <clipPath
       id="i">
      <path
         d="m 237.785,67.414 a 46,46 0 0 0 -4.515,0.207 q -2.254,0.21 -4.473,0.645 -2.224,0.432 -4.39,1.082 a 46.3,46.3 0 0 0 -8.352,3.422 46,46 0 0 0 -7.524,4.992 45.5,45.5 0 0 0 -6.398,6.36 46,46 0 0 0 -8.492,15.808 46,46 0 0 0 -1.098,4.375 45.6,45.6 0 0 0 0,17.938 q 0.44,2.215 1.098,4.378 a 45.7,45.7 0 0 0 5.797,12.187 47,47 0 0 0 2.695,3.622 47,47 0 0 0 3.043,3.336 46,46 0 0 0 6.992,5.703 47,47 0 0 0 3.887,2.308 45,45 0 0 0 4.09,1.918 46,46 0 0 0 4.261,1.508 c 1.446,0.434 2.906,0.793 4.39,1.082 q 2.22,0.434 4.474,0.645 2.251,0.212 4.515,0.203 c 4.078,0 18.09,-0.961 28.25,-13.246 v 13.246 h 17.695 v -45.86 a 46.3,46.3 0 0 0 -0.89,-8.941 47,47 0 0 0 -1.098,-4.363 46.3,46.3 0 0 0 -3.453,-8.301 45.4,45.4 0 0 0 -5.004,-7.473 46.1,46.1 0 0 0 -9.984,-9.035 47,47 0 0 0 -3.867,-2.312 45,45 0 0 0 -4.075,-1.926 46,46 0 0 0 -4.242,-1.52 47,47 0 0 0 -4.37,-1.097 46.3,46.3 0 0 0 -8.962,-0.89 m 0,74.059 a 28.5,28.5 0 0 1 -5.512,-0.543 c -0.91,-0.18 -1.804,-0.403 -2.691,-0.672 a 28,28 0 0 1 -2.61,-0.934 28,28 0 0 1 -2.507,-1.18 q -1.225,-0.654 -2.38,-1.425 a 28,28 0 0 1 -2.226,-1.649 29,29 0 0 1 -2.054,-1.855 29,29 0 0 1 -1.864,-2.05 28.4,28.4 0 0 1 -4.261,-7.099 30,30 0 0 1 -0.934,-2.605 28,28 0 0 1 -0.672,-2.684 28,28 0 0 1 -0.41,-2.738 q -0.134,-1.377 -0.133,-2.766 -0.001,-1.383 0.133,-2.761 c 0.094,-0.922 0.227,-1.832 0.406,-2.739 a 28.7,28.7 0 0 1 1.61,-5.289 c 0.355,-0.855 0.75,-1.687 1.183,-2.504 0.438,-0.812 0.914,-1.605 1.426,-2.37 a 29,29 0 0 1 1.652,-2.223 27,27 0 0 1 1.864,-2.051 28,28 0 0 1 4.28,-3.508 28,28 0 0 1 2.38,-1.422 29,29 0 0 1 2.504,-1.183 29,29 0 0 1 2.613,-0.934 29,29 0 0 1 2.688,-0.672 c 0.906,-0.18 1.824,-0.312 2.742,-0.406 q 1.381,-0.134 2.77,-0.133 1.387,-10e-4 2.769,0.133 1.383,0.14 2.742,0.406 1.363,0.272 2.691,0.672 1.325,0.405 2.61,0.934 a 28.23,28.23 0 0 1 12.68,10.386 q 0.768,1.151 1.425,2.371 a 28,28 0 0 1 1.184,2.504 q 0.534,1.28 0.933,2.606 0.406,1.324 0.676,2.683 a 28,28 0 0 1 0.543,5.5 q 0,1.389 -0.14,2.766 -0.136,1.376 -0.407,2.734 -0.276,1.36 -0.676,2.684 -0.404,1.324 -0.937,2.602 -0.532,1.282 -1.187,2.5 -0.653,1.222 -1.422,2.375 a 28.7,28.7 0 0 1 -3.516,4.27 28,28 0 0 1 -6.656,4.929 q -1.22,0.65 -2.504,1.183 a 29,29 0 0 1 -5.297,1.61 q -1.36,0.27 -2.738,0.406 -1.382,0.14 -2.77,0.14 m 0,0"
         id="path6" />
    </clipPath>
    <clipPath
       id="j">
      <path
         d="m 295,67 h 93 v 93 h -93 z m 0,0"
         id="path7" />
    </clipPath>
    <clipPath
       id="k">
      <path
         d="m 341.684,67.414 q -2.25,0.011 -4.489,0.238 a 46.1,46.1 0 0 0 -13.039,3.305 46,46 0 0 0 -4.058,1.934 45.6,45.6 0 0 0 -7.457,5 q -1.74,1.43 -3.329,3.02 a 47,47 0 0 0 -3.015,3.331 46,46 0 0 0 -2.672,3.61 46,46 0 0 0 -2.309,3.855 47,47 0 0 0 -1.918,4.059 46,46 0 0 0 -2.602,8.586 45,45 0 0 0 -0.655,4.437 45.3,45.3 0 0 0 0,8.969 q 0.216,2.238 0.656,4.441 a 46,46 0 0 0 1.09,4.356 45,45 0 0 0 1.511,4.226 47,47 0 0 0 1.918,4.063 46.3,46.3 0 0 0 4.98,7.46 46,46 0 0 0 9.95,9.04 46,46 0 0 0 3.852,2.316 q 1.982,1.068 4.058,1.93 a 47,47 0 0 0 4.23,1.527 q 2.157,0.659 4.36,1.106 a 46,46 0 0 0 4.45,0.675 q 2.237,0.228 4.488,0.235 c 4.082,0 18.093,-0.961 28.253,-13.246 v 13.246 h 17.696 v -45.86 q -0.002,-2.249 -0.227,-4.492 a 46,46 0 0 0 -0.664,-4.449 47,47 0 0 0 -1.097,-4.363 45,45 0 0 0 -1.524,-4.235 45,45 0 0 0 -1.93,-4.066 45.4,45.4 0 0 0 -5.004,-7.473 46,46 0 0 0 -6.367,-6.355 47,47 0 0 0 -3.62,-2.68 46,46 0 0 0 -3.864,-2.312 46,46 0 0 0 -4.074,-1.926 45,45 0 0 0 -4.246,-1.52 45,45 0 0 0 -4.371,-1.097 46.3,46.3 0 0 0 -8.961,-0.89 m 0,17.664 c 0.925,0 1.851,0.043 2.77,0.137 q 1.38,0.133 2.745,0.402 c 0.906,0.184 1.805,0.406 2.688,0.676 q 1.33,0.4 2.613,0.93 1.278,0.533 2.504,1.183 1.225,0.656 2.379,1.422 1.155,0.772 2.226,1.649 a 27,27 0 0 1 2.055,1.859 27,27 0 0 1 1.863,2.05 29,29 0 0 1 1.653,2.223 q 0.771,1.15 1.425,2.375 a 27.6,27.6 0 0 1 2.122,5.106 28.2,28.2 0 0 1 0,16.371 q -0.405,1.323 -0.934,2.605 -0.533,1.28 -1.188,2.5 a 28.4,28.4 0 0 1 -3.074,4.598 q -0.884,1.072 -1.863,2.05 -0.983,0.978 -2.055,1.856 a 28,28 0 0 1 -2.226,1.649 28,28 0 0 1 -4.887,2.61 28,28 0 0 1 -2.61,0.929 q -1.328,0.403 -2.687,0.672 a 28.4,28.4 0 0 1 -8.281,0.406 27,27 0 0 1 -2.742,-0.406 q -1.363,-0.27 -2.692,-0.672 a 28,28 0 0 1 -5.117,-2.113 q -1.225,-0.655 -2.379,-1.422 a 29,29 0 0 1 -2.226,-1.649 28,28 0 0 1 -3.914,-3.91 28,28 0 0 1 -3.078,-4.598 28,28 0 0 1 -1.188,-2.5 29,29 0 0 1 -0.934,-2.605 28.2,28.2 0 0 1 -1.078,-10.95 q 0.14,-1.374 0.41,-2.734 0.274,-1.359 0.676,-2.683 a 28.4,28.4 0 0 1 3.547,-7.477 28.7,28.7 0 0 1 3.512,-4.27 29,29 0 0 1 2.054,-1.859 29,29 0 0 1 2.227,-1.649 28,28 0 0 1 2.375,-1.422 27,27 0 0 1 2.504,-1.184 27,27 0 0 1 2.61,-0.933 q 1.328,-0.405 2.687,-0.676 1.359,-0.27 2.742,-0.41 c 0.918,-0.09 1.844,-0.137 2.766,-0.137 m 0,0"
         id="path8" />
    </clipPath>
    <clipPath
       id="l">
      <path
         d="m 101,67 h 81 v 93 h -81 z m 0,0"
         id="path9" />
    </clipPath>
    <clipPath
       id="m">
      <path
         d="m 148.39,106.2 -2.5,-0.41 c -7.027,-1.067 -12.035,-2.177 -15.312,-3.392 -4.973,-1.832 -6.015,-5.351 -6.015,-7.976 0,-2.285 0.93,-5.531 5.382,-8.016 3.215,-1.804 7.797,-2.683 14.008,-2.683 a 56.3,56.3 0 0 1 12.242,1.273 56.2,56.2 0 0 1 11.676,3.887 l 2.024,0.933 7.28,-15.523 -2.066,-0.934 a 60.5,60.5 0 0 0 -11.941,-3.832 89,89 0 0 0 -19.215,-2.113 c -11.629,0 -32.156,2.344 -38.976,18.035 -4.274,9.82 -1.711,21.34 6.093,27.395 7.434,5.777 17.715,7.332 26.778,8.703 l 0.46,0.074 c 6.684,0.828 11.54,1.828 14.848,3.047 4.973,1.844 6.02,5.168 6.02,7.637 0,6.984 -6.465,10.523 -19.211,10.523 a 68.2,68.2 0 0 1 -15.125,-1.86 68.4,68.4 0 0 1 -14.34,-5.152 l -2.066,-1.046 -7.286,15.652 1.915,0.98 a 66,66 0 0 0 13.671,4.946 88.7,88.7 0 0 0 22.184,2.785 c 8.832,0 16.55,-1.211 22.937,-3.59 8.125,-3.031 14.942,-9.441 17.793,-16.73 q 0.851,-2.111 1.227,-4.356 c 0.254,-1.492 0.344,-3 0.266,-4.512 a 21,21 0 0 0 -2.363,-8.68 C 173.16,110.2 160,108.076 148.39,106.2 m 0,0"
         id="path10" />
    </clipPath>
    <clipPath
       id="n">
      <path
         d="m 406,67 h 93 v 93 h -93 z m 0,0"
         id="path11" />
    </clipPath>
    <clipPath
       id="o">
      <path
         d="m 452.48,67.414 a 46.3,46.3 0 0 0 -13.332,1.988 46,46 0 0 0 -4.242,1.52 46,46 0 0 0 -4.074,1.926 47,47 0 0 0 -3.863,2.312 48,48 0 0 0 -3.621,2.68 46,46 0 0 0 -6.368,6.355 47,47 0 0 0 -2.683,3.614 47,47 0 0 0 -2.32,3.859 47,47 0 0 0 -1.93,4.066 46,46 0 0 0 -1.52,4.235 46.3,46.3 0 0 0 -1.766,8.813 46,46 0 0 0 -0.222,4.491 v 45.86 h 17.695 v -45.86 a 28,28 0 0 1 0.121,-2.773 28.3,28.3 0 0 1 1.06,-5.441 q 0.397,-1.332 0.925,-2.618 a 28.4,28.4 0 0 1 4.254,-7.132 27,27 0 0 1 1.863,-2.063 28,28 0 0 1 2.055,-1.871 28.7,28.7 0 0 1 4.613,-3.09 q 1.228,-0.655 2.516,-1.187 1.281,-0.538 2.617,-0.942 c 0.887,-0.27 1.785,-0.492 2.695,-0.676 a 28.4,28.4 0 0 1 5.531,-0.542 28.5,28.5 0 0 1 8.227,1.219 q 1.33,0.403 2.617,0.94 1.285,0.532 2.512,1.188 a 28,28 0 0 1 2.383,1.434 28,28 0 0 1 4.289,3.527 28,28 0 0 1 1.86,2.063 28,28 0 0 1 3.074,4.617 28.3,28.3 0 0 1 2.105,5.133 q 0.399,1.33 0.664,2.695 a 28.3,28.3 0 0 1 0.52,5.52 v 45.859 h 17.69 v -45.86 q 0.002,-2.249 -0.226,-4.492 a 45,45 0 0 0 -0.664,-4.449 45.4,45.4 0 0 0 -2.62,-8.598 46,46 0 0 0 -1.927,-4.066 47,47 0 0 0 -2.32,-3.86 46.3,46.3 0 0 0 -5.711,-6.945 47,47 0 0 0 -3.34,-3.02 47,47 0 0 0 -3.62,-2.683 46,46 0 0 0 -3.868,-2.312 45,45 0 0 0 -4.07,-1.926 46.4,46.4 0 0 0 -8.617,-2.617 46.3,46.3 0 0 0 -8.962,-0.89 m 0,0"
         id="path12" />
    </clipPath>
    <clipPath
       id="p">
      <path
         d="m 592,45.703 h 24 V 70 h -24 z m 0,0"
         id="path13" />
    </clipPath>
    <clipPath
       id="q">
      <path
         d="m 610.55,47.79 a 12,12 0 0 0 -2.01,-1.118 12,12 0 0 0 -2.188,-0.703 11.8,11.8 0 0 0 -4.579,-0.074 q -1.137,0.204 -2.21,0.632 -1.08,0.422 -2.047,1.047 c -0.649,0.418 -1.25,0.89 -1.805,1.426 a 12,12 0 0 0 -1.484,1.754 11.6,11.6 0 0 0 -1.825,4.191 11.8,11.8 0 0 0 -0.074,4.567 c 0.14,0.758 0.348,1.492 0.633,2.21 q 0.423,1.073 1.05,2.04 a 12,12 0 0 0 1.43,1.8 q 0.805,0.827 1.754,1.485 a 11.6,11.6 0 0 0 2.012,1.113 q 1.061,0.458 2.191,0.703 a 11.8,11.8 0 0 0 4.575,0.075 11.6,11.6 0 0 0 2.215,-0.633 11.5,11.5 0 0 0 2.042,-1.047 q 0.973,-0.627 1.805,-1.43 a 12,12 0 0 0 1.485,-1.75 q 0.667,-0.944 1.128,-2.004 a 11.6,11.6 0 0 0 0.715,-2.183 11.6,11.6 0 0 0 0.266,-2.286 q 0.024,-1.156 -0.188,-2.289 a 11.4,11.4 0 0 0 -0.632,-2.21 12,12 0 0 0 -1.055,-2.044 12,12 0 0 0 -1.441,-1.796 11.6,11.6 0 0 0 -1.762,-1.477 m 0,0"
         id="path14" />
    </clipPath>
    <clipPath
       id="r">
      <path
         d="m 512,66 h 97 v 173.016 h -97 z m 0,0"
         id="path15" />
    </clipPath>
    <clipPath
       id="s">
      <path
         d="m 584.441,153.32 -36.726,-21.746 -2.266,-1.363 c -7.648,-4.598 -12.21,-12.422 -12.21,-20.934 0,-13.66 11.73,-24.777 26.148,-24.777 14.422,0 26.148,11.117 26.148,24.781 0,9.223 -5.312,17.434 -13.734,21.73 l 17.21,9.946 c 9.563,-8.012 15.208,-19.422 15.208,-31.676 0,-23.43 -20.114,-42.488 -44.832,-42.488 -24.719,0 -44.836,19.055 -44.836,42.488 0,15.2 8.691,29.34 22.601,36.871 l 37.453,22.11 1.797,1.082 c 8.7,5.23 13.895,14.129 13.895,23.812 0,15.547 -13.352,28.196 -29.754,28.196 -16.406,0 -29.75,-12.645 -29.75,-28.196 0,-10.988 7.004,-21.039 17.52,-25.582 L 530.609,157.27 c -11.59,8.68 -18.449,21.793 -18.449,35.886 0,25.29 21.703,45.86 48.383,45.86 26.676,0 48.387,-20.57 48.387,-45.86 0,-16.441 -9.371,-31.664 -24.489,-39.836 m 0,0"
         id="path16" />
    </clipPath>
    <linearGradient
       id="b">
      <stop
         style="stop-color:#1f2d2a;stop-opacity:1"
         offset="0"
         id="stop16" />
      <stop
         style="stop-color:#1f2d2a;stop-opacity:0"
         offset="1"
         id="stop17" />
    </linearGradient>
    <linearGradient
       id="a">
      <stop
         style="stop-color:#014547;stop-opacity:1"
         offset="0"
         id="stop18" />
      <stop
         style="stop-color:#1f2d2a;stop-opacity:1"
         offset="1"
         id="stop19" />
    </linearGradient>
    <linearGradient
       xlink:href="#a"
       id="c"
       x1="0.35499999"
       y1="142.36099"
       x2="708.39801"
       y2="142.36099"
       gradientUnits="userSpaceOnUse" />
    <linearGradient
       xlink:href="#b"
       id="t"
       x1="192.752"
       y1="113.6"
       x2="283.14099"
       y2="113.6"
       gradientUnits="userSpaceOnUse" />
  </defs>
  <g
     style="stroke:none;"
     id="g39">
    <g
       clip-path="url(#d)"
       style="stroke:none;"
       id="g20">
      <g
         clip-path="url(#e)"
         style="stroke:none;"
         id="g19">
        <path
           style="stroke:nones"
           d="m 0.355,67.414 v 91.723 H 92.25 V 67.414 Z m 0,0"
           id="path19" />
      </g>
    </g>
    <g
       clip-path="url(#f)"
       style="stroke:none;"
       id="g22">
      <g
         clip-path="url(#g)"
         style="stroke:none;"
         id="g21">
        <path
           style="stroke:none"
           d="m 616.504,67.414 v 91.723 h 91.894 V 67.414 Z m 0,0"
           id="path20" />
      </g>
    </g>
    <g
       clip-path="url(#h)"
       style="stroke:none;"
       id="g24">
      <g
         clip-path="url(#i)"
         style="stroke:none;"
         id="g23">
        <path
           style="stroke:none"
           d="m 191.652,67.41 v 91.73 H 283.73 V 67.41 Z m 0,0"
           id="path22" />
      </g>
    </g>
    <g
       clip-path="url(#j)"
       style="stroke:none;"
       id="g26">
      <g
         clip-path="url(#k)"
         style="stroke:none;"
         id="g25">
        <path
           style="stroke:none"
           d="m 295.918,67.414 v 91.719 h 91.715 V 67.414 Z m 0,0"
           id="path24" />
      </g>
    </g>
    <g
       clip-path="url(#l)"
       style="stroke:none;"
       id="g28">
      <g
         clip-path="url(#m)"
         style="stroke:none;"
         id="g27">
        <path
           style="stroke:none"
           d="m 100.703,67.414 v 91.727 h 80.516 V 67.414 Z m 0,0"
           id="path26" />
      </g>
    </g>
    <g
       clip-path="url(#n)"
       style="stroke:none;"
       id="g30">
      <g
         clip-path="url(#o)"
         style="stroke:none;"
         id="g29">
        <path
           style="stroke:none"
           d="m 406.54,67.414 v 91.719 h 91.886 V 67.414 Z m 0,0"
           id="path28" />
      </g>
    </g>
    <g
       clip-path="url(#p)"
       style="stroke:none;"
       id="g32">
      <g
         clip-path="url(#q)"
         style="stroke:none;"
         id="g31">
        <path
           style="stroke:none"
           d="m 592.129,45.703 v 23.434 h 23.516 V 45.703 Z m 0,0"
           id="path30" />
      </g>
    </g>
    <g
       clip-path="url(#r)"
       style="stroke:none;"
       id="g34">
      <g
         clip-path="url(#s)"
         style="stroke:none;"
         id="g33">
        <path
           style="stroke:none"
           d="m 512.16,66.793 v 172.223 h 96.77 V 66.793 Z m 0,0"
           id="path32" />
      </g>
    </g>
    <path
       style="stroke:none;"
       d="m 126.152,158 c -4.81,-0.7 -12.672,-2.614 -16.226,-3.949 -4.501,-1.69 -8.163,-3.485 -8.163,-4 0,-0.265 0.97,-2.537 2.154,-5.049 a 683,683 0 0 0 3.355,-7.214 l 1.2,-2.647 4.328,1.926 c 15.828,7.044 36.574,7.966 43.432,1.93 2.297,-2.022 2.997,-3.549 2.997,-6.532 0,-4.283 -2.125,-6.725 -7.273,-8.356 -3.177,-1.006 -4.866,-1.333 -17.498,-3.388 -13.137,-2.137 -19.842,-4.729 -24.734,-9.559 -8.893,-8.782 -8.7,-23.497 0.429,-32.754 q 6.897,-6.994 20.112,-9.544 c 6.122,-1.181 21.147,-1.19 28.027,-0.015 8.554,1.46 18.435,4.717 18.182,5.994 -0.064,0.32 -1.589,3.739 -3.39,7.598 l -3.274,7.017 -3.613,-1.51 c -7.742,-3.235 -15.632,-4.594 -24.502,-4.221 -5.564,0.233 -8.306,0.776 -11.336,2.243 -2.126,1.029 -4.566,3.378 -5.302,5.105 -0.847,1.989 -0.69,5.246 0.351,7.306 1.876,3.709 5.594,5.047 21.65,7.793 12.289,2.101 16.288,3.154 21.28,5.601 4.9,2.403 8.102,5.492 10.282,9.92 l 1.56,3.173 v 12.412 l -1.47,2.993 c -3.768,7.675 -11.015,13.427 -20.279,16.094 -6.364,1.833 -10.222,2.267 -19.724,2.22 -5.113,-0.024 -10.381,-0.27 -12.555,-0.587 z"
       fill="none"
       id="path34" />
    <path
       style="stroke:none;"
       d="m 127.902,157.81 c -6.005,-0.59 -15.365,-2.989 -21.052,-5.395 -5.429,-2.297 -5.29,-1.403 -1.492,-9.658 l 3.285,-7.14 3.444,1.482 c 10.901,4.694 23.246,6.965 32.52,5.982 6.75,-0.714 10.97,-2.455 13.259,-5.466 2.479,-3.262 2.16,-8.155 -0.714,-10.944 -2.572,-2.495 -5.463,-3.35 -19.473,-5.754 -16.456,-2.825 -22.018,-4.785 -27.096,-9.55 a 21.9,21.9 0 0 1 -5.531,-8.207 c -1.175,-3.059 -1.396,-4.428 -1.361,-8.461 0.023,-2.774 0.27,-4.212 1.17,-6.823 3.245,-9.416 11.166,-15.433 24.309,-18.468 3.842,-0.887 20.916,-1.243 26.52,-0.553 2.276,0.28 4.587,0.527 5.136,0.547 0.548,0.02 1.087,0.134 1.197,0.252 0.167,0.182 4.751,1.335 7.098,1.787 0.376,0.072 0.729,0.167 0.783,0.212 0.054,0.045 0.235,0.118 0.4,0.164 0.517,0.146 1.82,0.647 4.09,1.573 1.624,0.663 2.163,1.077 2.071,1.594 -0.068,0.384 -1.37,3.286 -2.893,6.449 -1.523,3.163 -2.775,5.888 -2.782,6.057 -0.007,0.168 -0.256,0.627 -0.554,1.019 -0.51,0.673 -0.767,0.622 -4.623,-0.933 -5.62,-2.265 -10.656,-3.468 -16.659,-3.976 -5.274,-0.447 -11.976,-0.082 -15.388,0.837 -4.171,1.123 -8.035,4.255 -9.052,7.338 -1.065,3.228 0.413,7.8 3.097,9.576 2.867,1.897 6.563,2.827 23.038,5.798 9.304,1.678 13.713,2.919 18.127,5.102 6.028,2.983 9.411,6.883 11.272,12.996 1.176,3.863 0.906,9.721 -0.62,13.43 -1.925,4.683 -6.085,9.9 -9.524,11.945 -0.823,0.49 -1.496,1.066 -1.496,1.28 0,0.215 -0.152,0.296 -0.339,0.181 -0.186,-0.115 -0.725,0.151 -1.197,0.591 -0.472,0.44 -0.858,0.714 -0.858,0.61 0,-0.105 -1.123,0.317 -2.495,0.937 -3.313,1.497 -7.632,2.675 -12.485,3.407 -4.284,0.645 -17.361,0.748 -23.132,0.181 z m 141.571,0.904 -3.293,-0.116 v -6.369 c 0,-3.503 -0.051,-6.369 -0.115,-6.369 -0.063,0 -1.304,1.161 -2.758,2.58 -4.733,4.618 -10.566,7.81 -17.162,9.392 -4.045,0.97 -12.694,1.09 -17.143,0.238 -12.64,-2.419 -23.834,-10.269 -30.628,-21.475 -2.175,-3.588 -4.253,-8.703 -5.263,-12.954 -0.731,-3.079 -0.808,-4.414 -0.664,-11.484 0.148,-7.296 0.258,-8.315 1.25,-11.591 4.688,-15.489 16.679,-27.136 32.377,-31.448 2.852,-0.784 4.127,-0.875 11.972,-0.857 8.336,0.018 8.952,0.072 12.2,1.075 15.84,4.888 27.507,16.815 31.81,32.516 l 1.069,3.902 0.124,26.664 0.123,26.665 -5.303,-0.127 a 934,934 0 0 1 -8.596,-0.242 z m -22.51,-18.575 c 7.394,-2.626 12.78,-7.407 16.26,-14.432 2.347,-4.739 3.094,-8.362 2.837,-13.768 -0.914,-19.219 -19.608,-31.718 -37.916,-25.351 -4.073,1.416 -6.878,3.24 -10.457,6.795 -5.517,5.482 -8.175,11.968 -8.175,19.953 0,10.912 5.539,20.048 15.251,25.158 4.483,2.358 7.63,3 13.881,2.831 4.556,-0.122 5.84,-0.305 8.32,-1.186 z"
       fill="none"
       id="path35" />
    <path
       style="stroke:none;"
       d="m 269.473,158.334 -2.894,-0.137 -0.004,-4.871 c -0.002,-2.68 -0.114,-5.536 -0.248,-6.347 l -0.244,-1.476 -3.056,2.693 c -1.68,1.482 -3.917,3.286 -4.97,4.01 -2.53,1.74 -7.847,4.202 -10.832,5.014 -3.2,0.87 -13.06,1.251 -16.96,0.655 -11.403,-1.743 -22.73,-8.81 -29.49,-18.4 -2.755,-3.908 -4.54,-7.478 -6.35,-12.706 l -1.474,-4.254 0.03,-9.378 0.03,-9.379 1.257,-3.79 c 3.896,-11.742 11.575,-20.928 22.237,-26.6 7.653,-4.071 13.356,-5.157 24.734,-4.709 5.549,0.22 6.84,0.402 9.855,1.399 15.22,5.029 26.067,16.37 30.625,32.015 l 1.223,4.199 v 52.359 l -5.288,-0.08 c -2.908,-0.043 -6.59,-0.14 -8.18,-0.217 z m -23.67,-17.524 c 2.2,-0.61 6.436,-2.628 8.581,-4.085 2.184,-1.484 5.52,-5.018 7.266,-7.696 4.73,-7.255 5.942,-14.969 3.685,-23.452 -3.578,-13.445 -16.951,-22.52 -30.654,-20.801 -4.21,0.527 -9.146,2.204 -12.087,4.105 -3.216,2.079 -7.748,6.76 -9.6,9.916 -4.24,7.225 -4.978,17.071 -1.89,25.236 3.275,8.658 12.583,16.211 21.45,17.404 3.502,0.471 10.487,0.14 13.25,-0.627 z"
       fill="none"
       id="path36" />
    <path
       style="stroke:none;"
       d="m 273.563,158.387 c -0.439,-0.074 -2.145,-0.184 -3.791,-0.245 l -2.993,-0.11 -0.2,-6.054 c -0.11,-3.33 -0.315,-6.17 -0.457,-6.31 -0.142,-0.141 -1.578,0.88 -3.193,2.27 -4.403,3.79 -5.622,4.613 -9.657,6.524 -5.832,2.763 -7.71,3.127 -16.224,3.15 -8.804,0.025 -11.546,-0.556 -18.557,-3.93 -7.397,-3.56 -14.006,-9.225 -18.2,-15.603 -2.428,-3.693 -3.094,-5.06 -5.345,-10.975 l -1.9,-4.988 0.265,-9.485 c 0.259,-9.247 0.296,-9.571 1.495,-12.97 4.428,-12.548 12.737,-21.83 24.33,-27.179 4.876,-2.25 9.183,-3.22 15.518,-3.497 12.333,-0.538 19.568,1.338 28.648,7.43 3.272,2.196 9.252,7.766 10.772,10.034 l 2.265,3.38 c 1.984,2.96 4.192,8.054 5.553,12.807 l 1.05,3.667 v 52.328 l -4.29,-0.055 c -2.36,-0.03 -4.65,-0.115 -5.089,-0.189 z m -28.84,-17.1 c 3.23,-0.685 9.15,-3.659 11.63,-5.842 4.036,-3.552 7.692,-9.275 9.28,-14.527 1.1,-3.638 1.008,-11.355 -0.187,-15.545 -1.472,-5.167 -3.368,-8.334 -7.434,-12.42 -2.978,-2.993 -4.241,-3.94 -7.27,-5.455 -5.034,-2.515 -8.616,-3.262 -14.251,-2.974 -6.792,0.349 -11.734,2.129 -16.403,5.91 -6.384,5.168 -10.012,11.564 -10.98,19.356 -0.749,6.023 0.596,13.17 3.37,17.902 3.71,6.332 11.053,11.943 17.757,13.571 2.978,0.723 11.124,0.736 14.489,0.023 z"
       fill="none"
       id="path37" />
    <path
       style="stroke:none;"
       d="M 484.372,158.715 480.88,158.6 v -24.145 c 0,-27.53 -0.02,-27.76 -3.065,-34.07 -1.53,-3.17 -2.371,-4.323 -5.283,-7.234 -2.92,-2.922 -4.053,-3.747 -7.235,-5.274 -8.567,-4.111 -17.17,-4.151 -25.321,-0.117 -5.913,2.925 -10.433,7.446 -13.123,13.125 -2.656,5.603 -2.64,5.417 -2.64,32.929 v 24.817 h -17.187 l 0.12,-26.838 c 0.12,-26.483 0.133,-26.878 1.021,-29.946 4.612,-15.935 15.993,-27.553 31.81,-32.475 3.489,-1.085 3.844,-1.117 12.57,-1.108 8.577,0.01 9.132,0.057 12.4,1.068 15.84,4.904 27.51,16.835 31.809,32.52 l 1.07,3.902 0.123,26.673 0.124,26.674 -5.105,-0.135 a 1648,1648 0 0 1 -8.596,-0.251 z m -110.029,0.002 -4.404,-0.112 v -12.817 l -3.369,3.152 c -3.98,3.723 -8.487,6.4 -13.791,8.191 -3.758,1.27 -3.86,1.28 -11.573,1.273 -7.356,-0.007 -7.978,-0.068 -11.352,-1.108 -8.506,-2.624 -14.531,-6.147 -20.2,-11.812 -5.577,-5.572 -9.396,-11.971 -11.804,-19.779 -1.066,-3.456 -1.108,-3.914 -1.117,-12.369 -0.009,-8.466 0.03,-8.908 1.093,-12.371 2.295,-7.484 5.884,-13.701 10.996,-19.053 3.846,-4.025 7.272,-6.598 12.031,-9.034 7.83,-4.009 12.396,-4.976 22.383,-4.743 6.576,0.153 7.725,0.286 10.937,1.263 8.006,2.434 14.34,6.268 20.156,12.2 7.164,7.308 11.435,16.129 12.757,26.35 0.213,1.647 0.393,13.818 0.4,27.047 l 0.012,24.053 -4.375,-0.109 z m -25.4,-18.033 c 7.913,-2.024 14.376,-7.306 18.186,-14.862 2.245,-4.454 2.946,-8.066 2.718,-14.014 -0.16,-4.172 -0.36,-5.322 -1.42,-8.159 -3.017,-8.078 -9.357,-14.361 -17.268,-17.112 -10.352,-3.6 -21.617,-1.058 -29.499,6.657 -4.954,4.849 -7.902,11.38 -8.286,18.36 -0.744,13.495 7.962,25.644 20.866,29.121 3.9,1.05 10.615,1.055 14.704,0.009 z m -78.473,17.25 -3.492,-0.133 v -3.717 c 0,-5.207 -0.401,-8.623 -1.013,-8.623 -0.276,0 -2.27,1.45 -4.433,3.22 -4.328,3.545 -10.126,6.667 -14.507,7.811 -4.027,1.052 -16.655,0.936 -20.854,-0.192 -6.778,-1.82 -14.473,-6.38 -20.081,-11.9 -4.63,-4.557 -7.562,-9.17 -10.375,-16.321 l -2.291,-5.824 0.262,-9.305 c 0.287,-10.208 0.562,-11.689 3.267,-17.625 6.425,-14.099 19.617,-24.045 34.103,-25.71 5.045,-0.581 13.414,-0.3 17.503,0.589 5.258,1.141 11.377,4.052 16.025,7.623 8.21,6.308 12.77,12.68 16.41,22.938 l 1.346,3.792 0.112,26.837 0.112,26.838 -4.301,-0.082 a 502,502 0 0 1 -7.793,-0.216 z m -28.034,-16.04 c 5.448,-0.627 12.334,-4.098 15.983,-8.058 3.383,-3.67 5.961,-8.06 7.317,-12.46 1.066,-3.46 1.166,-10.817 0.206,-15.144 -1.744,-7.862 -8.02,-15.66 -15.432,-19.178 -4.883,-2.317 -7.107,-2.814 -12.464,-2.79 -7.752,0.037 -12.594,1.627 -18.121,5.952 -7.272,5.69 -11.21,13.756 -11.21,22.958 0,10.842 4.305,18.763 13.44,24.727 5.909,3.857 11.652,4.988 20.28,3.994 z"
       fill="none"
       id="path38" />
    <path
       style="stroke:none;"
       d="m 484.173,158.334 -2.893,-0.137 -0.006,-21.433 c -0.007,-24.24 -0.296,-29.634 -1.784,-33.354 -1.907,-4.767 -3.489,-7.176 -6.975,-10.626 -3.709,-3.67 -6.847,-5.513 -12.186,-7.159 -12.521,-3.858 -27.06,2.35 -33.216,14.184 -3.125,6.006 -3.016,4.875 -3.2,33.181 l -0.166,25.242 h -16.391 l 0.2,-26.838 c 0.228,-30.572 0.047,-28.852 3.884,-36.911 2.615,-5.493 5.293,-9.258 9.48,-13.332 5.441,-5.293 11.496,-8.934 18.856,-11.342 3.327,-1.087 3.575,-1.109 12.77,-1.094 l 9.379,0.016 3.753,1.264 c 10.46,3.526 18.98,9.996 24.769,18.813 2.596,3.954 4.403,7.999 6.054,13.554 l 1.127,3.79 0.007,26.24 0.007,26.239 -5.288,-0.08 c -2.908,-0.043 -6.59,-0.14 -8.18,-0.217 z"
       fill="none"
       id="path39" />
  </g>
</svg>
