<?xml version="1.0" encoding="UTF-8" standalone="no"?>
<svg
   width="708.75"
   height="285"
   viewBox="0 0 708.75 285"
   version="1.2"
   id="svg39"
   sodipodi:docname="osaango.svg"
   inkscape:version="1.4.2 (f4327f4, 2025-05-13)"
   xmlns:inkscape="http://www.inkscape.org/namespaces/inkscape"
   xmlns:sodipodi="http://sodipodi.sourceforge.net/DTD/sodipodi-0.dtd"
   xmlns:xlink="http://www.w3.org/1999/xlink"
   xmlns="http://www.w3.org/2000/svg"
   xmlns:svg="http://www.w3.org/2000/svg">
  <sodipodi:namedview
     id="namedview39"
     pagecolor="#ffffff"
     bordercolor="#000000"
     borderopacity="0.25"
     inkscape:showpageshadow="2"
     inkscape:pageopacity="0.0"
     inkscape:pagecheckerboard="0"
     inkscape:deskcolor="#d1d1d1"
     showgrid="false"
     inkscape:zoom="0.52768959"
     inkscape:cx="354.375"
     inkscape:cy="142.12901"
     inkscape:window-width="1280"
     inkscape:window-height="650"
     inkscape:window-x="-6"
     inkscape:window-y="-6"
     inkscape:window-maximized="1"
     inkscape:current-layer="svg39" />
  <defs
     id="defs19">
    <clipPath
       id="d">
      <path
         d="M0 67h93v93H0Zm0 0"
         id="path1" />
    </clipPath>
    <clipPath
       id="e">
      <path
         d="M46.3 67.414q-2.254 0-4.503.223a46.3 46.3 0 0 0-8.832 1.754 47 47 0 0 0-4.246 1.515 46.2 46.2 0 0 0-11.566 6.918 45 45 0 0 0-3.34 3.024 45 45 0 0 0-3.028 3.336 45 45 0 0 0-2.687 3.613 47 47 0 0 0-2.32 3.86 46 46 0 0 0-1.926 4.07 45.5 45.5 0 0 0-2.613 8.602 45.4 45.4 0 0 0-.883 8.945 45.4 45.4 0 0 0 .882 8.949 45 45 0 0 0 1.094 4.363 46.4 46.4 0 0 0 3.445 8.309 47 47 0 0 0 2.32 3.859 45 45 0 0 0 2.688 3.613 45 45 0 0 0 3.028 3.336 45 45 0 0 0 3.34 3.024 46.2 46.2 0 0 0 11.566 6.918 47 47 0 0 0 4.246 1.515 46.3 46.3 0 0 0 13.336 1.977q2.261 0 4.504-.223 2.248-.221 4.46-.66a46 46 0 0 0 4.376-1.094 45.6 45.6 0 0 0 8.32-3.441 45 45 0 0 0 3.867-2.313 46 46 0 0 0 3.625-2.68 46 46 0 0 0 6.367-6.359 45.4 45.4 0 0 0 5.004-7.473 46 46 0 0 0 1.93-4.07 46 46 0 0 0 1.52-4.238q.654-2.155 1.093-4.363a46 46 0 0 0 .664-4.453 47 47 0 0 0 .219-4.497q.001-2.249-.227-4.492a46 46 0 0 0-.664-4.449 45.4 45.4 0 0 0-2.62-8.598 45 45 0 0 0-1.93-4.066 45.4 45.4 0 0 0-5.004-7.473 46.1 46.1 0 0 0-9.989-9.035 47 47 0 0 0-3.863-2.316 46 46 0 0 0-4.074-1.922 45 45 0 0 0-4.246-1.52 45 45 0 0 0-4.371-1.097 46.3 46.3 0 0 0-8.961-.89m0 74.059a28.5 28.5 0 0 1-5.51-.543 28 28 0 0 1-5.3-1.605 28 28 0 0 1-2.506-1.18 28 28 0 0 1-2.379-1.426 28 28 0 0 1-2.226-1.649 27 27 0 0 1-2.055-1.855 27 27 0 0 1-1.863-2.05 28.1 28.1 0 0 1-4.262-7.098 28 28 0 0 1-.937-2.606 28.2 28.2 0 0 1 0-16.371q.406-1.326.933-2.606a28.2 28.2 0 0 1 6.125-9.148 29 29 0 0 1 2.055-1.86 28.1 28.1 0 0 1 7.113-4.254 29 29 0 0 1 2.61-.933 29 29 0 0 1 2.691-.672c.906-.18 1.82-.312 2.742-.406.918-.09 1.844-.133 2.77-.133q1.387-.001 2.77.133 1.376.14 2.742.406 1.358.272 2.687.672 1.331.405 2.61.934a28.2 28.2 0 0 1 9.167 6.113 27.7 27.7 0 0 1 3.512 4.273q.775 1.151 1.426 2.371a28 28 0 0 1 2.12 5.11q.404 1.324.673 2.683a28.2 28.2 0 0 1 .406 8.266 29 29 0 0 1-.41 2.734q-.27 1.36-.676 2.684t-.933 2.602q-.532 1.282-1.188 2.5a28 28 0 0 1-4.937 6.644 29 29 0 0 1-2.055 1.86 28.5 28.5 0 0 1-7.105 4.254 28.4 28.4 0 0 1-5.297 1.609q-1.36.27-2.743.406-1.381.14-2.77.14m0 0"
         id="path2" />
    </clipPath>
    <clipPath
       id="f">
      <path
         d="M616 67h92.5v93H616Zm0 0"
         id="path3" />
    </clipPath>
    <clipPath
       id="g">
      <path
         d="M662.453 67.414a46.5 46.5 0 0 0-8.965.883 46 46 0 0 0-4.375 1.094 46 46 0 0 0-8.32 3.441 45 45 0 0 0-3.867 2.313 46 46 0 0 0-3.625 2.68 46 46 0 0 0-6.367 6.359 45.4 45.4 0 0 0-5.004 7.473 46 46 0 0 0-1.93 4.07 45.5 45.5 0 0 0-2.613 8.602 46 46 0 0 0-.664 4.452 47 47 0 0 0-.22 4.492q.001 2.257.22 4.497a46 46 0 0 0 1.757 8.816 46 46 0 0 0 1.52 4.238 45 45 0 0 0 1.93 4.07 45.4 45.4 0 0 0 5.004 7.473 45 45 0 0 0 3.027 3.336 45 45 0 0 0 3.34 3.024 45.6 45.6 0 0 0 7.492 4.992 45 45 0 0 0 4.074 1.926 47 47 0 0 0 4.246 1.515q2.162.655 4.375 1.094a46.3 46.3 0 0 0 8.965.883q2.256 0 4.5-.223c1.5-.148 2.984-.367 4.461-.66a46 46 0 0 0 4.375-1.094 47 47 0 0 0 4.246-1.515 45 45 0 0 0 4.074-1.926 45.6 45.6 0 0 0 7.493-4.992 45 45 0 0 0 3.34-3.024 45 45 0 0 0 3.027-3.336 45.4 45.4 0 0 0 5.004-7.473 45 45 0 0 0 1.93-4.07 46 46 0 0 0 1.519-4.238q.654-2.155 1.094-4.363a46 46 0 0 0 .664-4.453q.217-2.24.218-4.497a45.5 45.5 0 0 0-.89-8.941 45.4 45.4 0 0 0-2.621-8.598 46 46 0 0 0-1.926-4.066 47 47 0 0 0-2.32-3.86 46 46 0 0 0-2.688-3.613 45 45 0 0 0-3.027-3.332 45 45 0 0 0-3.34-3.023 47 47 0 0 0-3.617-2.68 45 45 0 0 0-3.867-2.312 45 45 0 0 0-4.075-1.926 46 46 0 0 0-4.242-1.52 47 47 0 0 0-4.37-1.097 46.3 46.3 0 0 0-8.962-.89m0 74.059a28.5 28.5 0 0 1-5.512-.543c-.91-.18-1.804-.403-2.691-.672a27 27 0 0 1-2.61-.934 28 28 0 0 1-2.507-1.18q-1.225-.654-2.38-1.425a28 28 0 0 1-2.226-1.649 29 29 0 0 1-2.054-1.855 29 29 0 0 1-1.864-2.05 28.4 28.4 0 0 1-4.261-7.099 28 28 0 0 1-.934-2.605 28 28 0 0 1-.672-2.684 28 28 0 0 1-.41-2.738q-.134-1.377-.133-2.766-.001-1.383.133-2.761c.094-.922.227-1.832.406-2.739a28.7 28.7 0 0 1 1.61-5.289c.355-.855.75-1.687 1.183-2.504.438-.812.914-1.605 1.426-2.37a29 29 0 0 1 1.652-2.223 27 27 0 0 1 1.864-2.051 28 28 0 0 1 4.28-3.508 28 28 0 0 1 2.38-1.422 29 29 0 0 1 2.504-1.183 29 29 0 0 1 2.613-.934 29 29 0 0 1 2.688-.672c.906-.18 1.82-.312 2.742-.406q1.381-.134 2.77-.133 1.387-.001 2.769.133 1.383.14 2.742.406 1.36.272 2.691.672 1.325.405 2.61.934a28.23 28.23 0 0 1 15.289 15.261q.534 1.28.933 2.606.405 1.324.676 2.683a28 28 0 0 1 .543 5.5 28.4 28.4 0 0 1-.55 5.5q-.271 1.36-.676 2.684-.4 1.324-.934 2.602-.532 1.282-1.188 2.5-.651 1.222-1.425 2.375a28 28 0 0 1-3.512 4.27 28.7 28.7 0 0 1-4.277 3.508q-1.155.765-2.38 1.42-1.22.651-2.503 1.184a29 29 0 0 1-5.297 1.61q-1.359.27-2.742.406-1.377.14-2.766.14m0 0"
         id="path4" />
    </clipPath>
    <clipPath
       id="h">
      <path
         d="M191 67h93v93h-93zm0 0"
         id="path5" />
    </clipPath>
    <clipPath
       id="i">
      <path
         d="M237.785 67.414a46 46 0 0 0-4.515.207q-2.254.21-4.473.645-2.224.432-4.39 1.082a46.3 46.3 0 0 0-8.352 3.422 46 46 0 0 0-7.524 4.992 45.5 45.5 0 0 0-6.398 6.36 46 46 0 0 0-8.492 15.808 46 46 0 0 0-1.098 4.375 45.6 45.6 0 0 0 0 17.938q.44 2.215 1.098 4.378a45.7 45.7 0 0 0 5.797 12.187 47 47 0 0 0 2.695 3.622 47 47 0 0 0 3.043 3.336 46 46 0 0 0 6.992 5.703 47 47 0 0 0 3.887 2.308 45 45 0 0 0 4.09 1.918 46 46 0 0 0 4.261 1.508c1.446.434 2.906.793 4.39 1.082q2.22.434 4.474.645 2.251.212 4.515.203c4.078 0 18.09-.961 28.25-13.246v13.246h17.695v-45.86a46.3 46.3 0 0 0-.89-8.941 47 47 0 0 0-1.098-4.363 46.3 46.3 0 0 0-3.453-8.301 45.4 45.4 0 0 0-5.004-7.473 46.1 46.1 0 0 0-9.984-9.035 47 47 0 0 0-3.867-2.312 45 45 0 0 0-4.075-1.926 46 46 0 0 0-4.242-1.52 47 47 0 0 0-4.37-1.097 46.3 46.3 0 0 0-8.962-.89m0 74.059a28.5 28.5 0 0 1-5.512-.543c-.91-.18-1.804-.403-2.691-.672a28 28 0 0 1-2.61-.934 28 28 0 0 1-2.507-1.18q-1.225-.654-2.38-1.425a28 28 0 0 1-2.226-1.649 29 29 0 0 1-2.054-1.855 29 29 0 0 1-1.864-2.05 28.4 28.4 0 0 1-4.261-7.099 30 30 0 0 1-.934-2.605 28 28 0 0 1-.672-2.684 28 28 0 0 1-.41-2.738q-.134-1.377-.133-2.766-.001-1.383.133-2.761c.094-.922.227-1.832.406-2.739a28.7 28.7 0 0 1 1.61-5.289c.355-.855.75-1.687 1.183-2.504.438-.812.914-1.605 1.426-2.37a29 29 0 0 1 1.652-2.223 27 27 0 0 1 1.864-2.051 28 28 0 0 1 4.28-3.508 28 28 0 0 1 2.38-1.422 29 29 0 0 1 2.504-1.183 29 29 0 0 1 2.613-.934 29 29 0 0 1 2.688-.672c.906-.18 1.824-.312 2.742-.406q1.381-.134 2.77-.133 1.387-.001 2.769.133 1.383.14 2.742.406 1.363.272 2.691.672 1.325.405 2.61.934a28.23 28.23 0 0 1 12.68 10.386q.768 1.151 1.425 2.371a28 28 0 0 1 1.184 2.504q.534 1.28.933 2.606.406 1.324.676 2.683a28 28 0 0 1 .543 5.5q0 1.389-.14 2.766-.136 1.376-.407 2.734-.276 1.36-.676 2.684-.404 1.324-.937 2.602-.532 1.282-1.187 2.5-.653 1.222-1.422 2.375a28.7 28.7 0 0 1-3.516 4.27 28 28 0 0 1-6.656 4.929q-1.22.65-2.504 1.183a29 29 0 0 1-5.297 1.61q-1.36.27-2.738.406-1.382.14-2.77.14m0 0"
         id="path6" />
    </clipPath>
    <clipPath
       id="j">
      <path
         d="M295 67h93v93h-93zm0 0"
         id="path7" />
    </clipPath>
    <clipPath
       id="k">
      <path
         d="M341.684 67.414q-2.25.011-4.489.238a46.1 46.1 0 0 0-13.039 3.305 46 46 0 0 0-4.058 1.934 45.6 45.6 0 0 0-7.457 5q-1.74 1.43-3.329 3.02a47 47 0 0 0-3.015 3.331 46 46 0 0 0-2.672 3.61 46 46 0 0 0-2.309 3.855 47 47 0 0 0-1.918 4.059 46 46 0 0 0-2.602 8.586 45 45 0 0 0-.655 4.437 45.3 45.3 0 0 0 0 8.969q.216 2.238.656 4.441a46 46 0 0 0 1.09 4.356 45 45 0 0 0 1.511 4.226 47 47 0 0 0 1.918 4.063 46.3 46.3 0 0 0 4.98 7.46 46 46 0 0 0 9.95 9.04 46 46 0 0 0 3.852 2.316q1.982 1.068 4.058 1.93a47 47 0 0 0 4.23 1.527q2.157.659 4.36 1.106a46 46 0 0 0 4.45.675q2.237.228 4.488.235c4.082 0 18.093-.961 28.253-13.246v13.246h17.696v-45.86q-.002-2.249-.227-4.492a46 46 0 0 0-.664-4.449 47 47 0 0 0-1.097-4.363 45 45 0 0 0-1.524-4.235 45 45 0 0 0-1.93-4.066 45.4 45.4 0 0 0-5.004-7.473 46 46 0 0 0-6.367-6.355 47 47 0 0 0-3.62-2.68 46 46 0 0 0-3.864-2.312 46 46 0 0 0-4.074-1.926 45 45 0 0 0-4.246-1.52 45 45 0 0 0-4.371-1.097 46.3 46.3 0 0 0-8.961-.89m0 17.664c.925 0 1.851.043 2.77.137q1.38.133 2.745.402c.906.184 1.805.406 2.688.676q1.33.4 2.613.93 1.278.533 2.504 1.183 1.225.656 2.379 1.422 1.155.772 2.226 1.649a27 27 0 0 1 2.055 1.859 27 27 0 0 1 1.863 2.05 29 29 0 0 1 1.653 2.223q.771 1.15 1.425 2.375a27.6 27.6 0 0 1 2.122 5.106 28.2 28.2 0 0 1 0 16.371q-.405 1.323-.934 2.605-.533 1.28-1.188 2.5a28.4 28.4 0 0 1-3.074 4.598q-.884 1.072-1.863 2.05-.983.978-2.055 1.856a28 28 0 0 1-2.226 1.649 28 28 0 0 1-4.887 2.61 28 28 0 0 1-2.61.929q-1.328.403-2.687.672a28.4 28.4 0 0 1-8.281.406 27 27 0 0 1-2.742-.406q-1.363-.27-2.692-.672a28 28 0 0 1-5.117-2.113q-1.225-.655-2.379-1.422a29 29 0 0 1-2.226-1.649 28 28 0 0 1-3.914-3.91 28 28 0 0 1-3.078-4.598 28 28 0 0 1-1.188-2.5 29 29 0 0 1-.934-2.605 28.2 28.2 0 0 1-1.078-10.95q.14-1.374.41-2.734.274-1.359.676-2.683a28.4 28.4 0 0 1 3.547-7.477 28.7 28.7 0 0 1 3.512-4.27 29 29 0 0 1 2.054-1.859A29 29 0 0 1 326 89.84a28 28 0 0 1 2.375-1.422 27 27 0 0 1 2.504-1.184 27 27 0 0 1 2.61-.933q1.328-.405 2.687-.676 1.359-.27 2.742-.41c.918-.09 1.844-.137 2.766-.137m0 0"
         id="path8" />
    </clipPath>
    <clipPath
       id="l">
      <path
         d="M101 67h81v93h-81zm0 0"
         id="path9" />
    </clipPath>
    <clipPath
       id="m">
      <path
         d="m148.39 106.2-2.5-.41c-7.027-1.067-12.035-2.177-15.312-3.392-4.973-1.832-6.015-5.351-6.015-7.976 0-2.285.93-5.531 5.382-8.016 3.215-1.804 7.797-2.683 14.008-2.683a56.3 56.3 0 0 1 12.242 1.273 56.2 56.2 0 0 1 11.676 3.887l2.024.933 7.28-15.523-2.066-.934a60.5 60.5 0 0 0-11.941-3.832 89 89 0 0 0-19.215-2.113c-11.629 0-32.156 2.344-38.976 18.035-4.274 9.82-1.711 21.34 6.093 27.395 7.434 5.777 17.715 7.332 26.778 8.703l.46.074c6.684.828 11.54 1.828 14.848 3.047 4.973 1.844 6.02 5.168 6.02 7.637 0 6.984-6.465 10.523-19.211 10.523a68.2 68.2 0 0 1-15.125-1.86 68.4 68.4 0 0 1-14.34-5.152l-2.066-1.046-7.286 15.652 1.915.98a66 66 0 0 0 13.671 4.946 88.7 88.7 0 0 0 22.184 2.785c8.832 0 16.55-1.211 22.937-3.59 8.125-3.031 14.942-9.441 17.793-16.73q.851-2.111 1.227-4.356c.254-1.492.344-3 .266-4.512a21 21 0 0 0-2.363-8.68C173.16 110.2 160 108.076 148.39 106.2m0 0"
         id="path10" />
    </clipPath>
    <clipPath
       id="n">
      <path
         d="M406 67h93v93h-93zm0 0"
         id="path11" />
    </clipPath>
    <clipPath
       id="o">
      <path
         d="M452.48 67.414a46.3 46.3 0 0 0-13.332 1.988 46 46 0 0 0-4.242 1.52 46 46 0 0 0-4.074 1.926 47 47 0 0 0-3.863 2.312 48 48 0 0 0-3.621 2.68 46 46 0 0 0-6.368 6.355 47 47 0 0 0-2.683 3.614 47 47 0 0 0-2.32 3.859 47 47 0 0 0-1.93 4.066 46 46 0 0 0-1.52 4.235 46.3 46.3 0 0 0-1.766 8.813 46 46 0 0 0-.222 4.491v45.86h17.695v-45.86a28 28 0 0 1 .121-2.773 28.3 28.3 0 0 1 1.06-5.441q.397-1.332.925-2.618a28.4 28.4 0 0 1 4.254-7.132 27 27 0 0 1 1.863-2.063 28 28 0 0 1 2.055-1.871 28.7 28.7 0 0 1 4.613-3.09q1.228-.655 2.516-1.187 1.281-.538 2.617-.942c.887-.27 1.785-.492 2.695-.676a28.4 28.4 0 0 1 5.531-.542 28.5 28.5 0 0 1 8.227 1.219q1.33.403 2.617.94 1.285.532 2.512 1.188a28 28 0 0 1 2.383 1.434 28 28 0 0 1 4.289 3.527 28 28 0 0 1 1.86 2.063 28 28 0 0 1 3.074 4.617 28.3 28.3 0 0 1 2.105 5.133q.399 1.33.664 2.695a28.3 28.3 0 0 1 .52 5.52v45.859h17.69v-45.86q.002-2.249-.226-4.492a45 45 0 0 0-.664-4.449 45.4 45.4 0 0 0-2.62-8.598 46 46 0 0 0-1.927-4.066 47 47 0 0 0-2.32-3.86 46.3 46.3 0 0 0-5.711-6.945 47 47 0 0 0-3.34-3.02 47 47 0 0 0-3.62-2.683 46 46 0 0 0-3.868-2.312 45 45 0 0 0-4.07-1.926 46.4 46.4 0 0 0-8.617-2.617 46.3 46.3 0 0 0-8.962-.89m0 0"
         id="path12" />
    </clipPath>
    <clipPath
       id="p">
      <path
         d="M592 45.703h24V70h-24zm0 0"
         id="path13" />
    </clipPath>
    <clipPath
       id="q">
      <path
         d="M610.55 47.79a12 12 0 0 0-2.01-1.118 12 12 0 0 0-2.188-.703 11.8 11.8 0 0 0-4.579-.074q-1.137.204-2.21.632-1.08.422-2.047 1.047c-.649.418-1.25.89-1.805 1.426a12 12 0 0 0-1.484 1.754 11.6 11.6 0 0 0-1.825 4.191 11.8 11.8 0 0 0-.074 4.567c.14.758.348 1.492.633 2.21q.423 1.073 1.05 2.04a12 12 0 0 0 1.43 1.8q.805.827 1.754 1.485a11.6 11.6 0 0 0 2.012 1.113q1.061.458 2.191.703a11.8 11.8 0 0 0 4.575.075 11.6 11.6 0 0 0 2.215-.633 11.5 11.5 0 0 0 2.042-1.047q.973-.627 1.805-1.43a12 12 0 0 0 1.485-1.75q.667-.944 1.128-2.004a11.6 11.6 0 0 0 .715-2.183 11.6 11.6 0 0 0 .266-2.286q.024-1.156-.188-2.289a11.4 11.4 0 0 0-.632-2.21 12 12 0 0 0-1.055-2.044 12 12 0 0 0-1.441-1.796 11.6 11.6 0 0 0-1.762-1.477m0 0"
         id="path14" />
    </clipPath>
    <clipPath
       id="r">
      <path
         d="M512 66h97v173.016h-97zm0 0"
         id="path15" />
    </clipPath>
    <clipPath
       id="s">
      <path
         d="m584.441 153.32-36.726-21.746-2.266-1.363c-7.648-4.598-12.21-12.422-12.21-20.934 0-13.66 11.73-24.777 26.148-24.777 14.422 0 26.148 11.117 26.148 24.781 0 9.223-5.312 17.434-13.734 21.73l17.21 9.946c9.563-8.012 15.208-19.422 15.208-31.676 0-23.43-20.114-42.488-44.832-42.488-24.719 0-44.836 19.055-44.836 42.488 0 15.2 8.691 29.34 22.601 36.871l37.453 22.11 1.797 1.082c8.7 5.23 13.895 14.129 13.895 23.812 0 15.547-13.352 28.196-29.754 28.196-16.406 0-29.75-12.645-29.75-28.196 0-10.988 7.004-21.039 17.52-25.582l-17.704-10.304c-11.59 8.68-18.449 21.793-18.449 35.886 0 25.29 21.703 45.86 48.383 45.86 26.676 0 48.387-20.57 48.387-45.86 0-16.441-9.371-31.664-24.489-39.836m0 0"
         id="path16" />
    </clipPath>
    <linearGradient
       id="b">
      <stop
         style="stop-color:#1f2d2a;stop-opacity:1"
         offset="0"
         id="stop16" />
      <stop
         style="stop-color:#1f2d2a;stop-opacity:0"
         offset="1"
         id="stop17" />
    </linearGradient>
    <linearGradient
       id="a">
      <stop
         style="stop-color:#014547;stop-opacity:1"
         offset="0"
         id="stop18" />
      <stop
         style="stop-color:#1f2d2a;stop-opacity:1"
         offset="1"
         id="stop19" />
    </linearGradient>
    <linearGradient
       xlink:href="#a"
       id="c"
       x1=".355"
       y1="142.361"
       x2="708.398"
       y2="142.361"
       gradientUnits="userSpaceOnUse" />
    <linearGradient
       xlink:href="#b"
       id="t"
       x1="192.752"
       y1="113.6"
       x2="283.141"
       y2="113.6"
       gradientUnits="userSpaceOnUse" />
  </defs>
  <g
     style="fill:#382e47;fill-opacity:1;stroke:url(#c);stroke-opacity:1"
     id="g39">
    <g
       clip-path="url(#d)"
       style="fill:#004d50;fill-opacity:1;stroke:#004d50;stroke-opacity:1"
       id="g20">
      <g
         clip-path="url(#e)"
         style="fill:#004d50;fill-opacity:1;stroke:#004d50;stroke-opacity:1"
         id="g19">
        <path
           style="fill:#004d50;fill-opacity:1;fill-rule:nonzero;stroke:#004d50;stroke-opacity:1"
           d="M.355 67.414v91.723H92.25V67.414Zm0 0"
           id="path19" />
      </g>
    </g>
    <g
       clip-path="url(#f)"
       style="fill:#004d50;fill-opacity:1;stroke:#004d50;stroke-opacity:1"
       id="g22">
      <g
         clip-path="url(#g)"
         style="fill:#004d50;fill-opacity:1;stroke:#004d50;stroke-opacity:1"
         id="g21">
        <path
           style="fill:#004d50;fill-opacity:1;fill-rule:nonzero;stroke:#004d50;stroke-opacity:1"
           d="M616.504 67.414v91.723h91.894V67.414Zm0 0"
           id="path20" />
      </g>
    </g>
    <g
       clip-path="url(#h)"
       style="fill:#004d50;fill-opacity:1;stroke:#004d50;stroke-opacity:1"
       id="g24">
      <g
         clip-path="url(#i)"
         style="fill:#004d50;fill-opacity:1;stroke:#004d50;stroke-opacity:1"
         id="g23">
        <path
           style="fill:#004d50;fill-opacity:1;fill-rule:nonzero;stroke:#004d50;stroke-opacity:1"
           d="M191.652 67.41v91.73h92.078V67.41Zm0 0"
           id="path22" />
      </g>
    </g>
    <g
       clip-path="url(#j)"
       style="fill:#004d50;fill-opacity:1;stroke:#004d50;stroke-opacity:1"
       id="g26">
      <g
         clip-path="url(#k)"
         style="fill:#004d50;fill-opacity:1;stroke:#004d50;stroke-opacity:1"
         id="g25">
        <path
           style="fill:#004d50;fill-opacity:1;fill-rule:nonzero;stroke:#004d50;stroke-opacity:1"
           d="M295.918 67.414v91.719h91.715V67.414Zm0 0"
           id="path24" />
      </g>
    </g>
    <g
       clip-path="url(#l)"
       style="fill:#004d50;fill-opacity:1;stroke:#004d50;stroke-opacity:1"
       id="g28">
      <g
         clip-path="url(#m)"
         style="fill:#004d50;fill-opacity:1;stroke:#004d50;stroke-opacity:1"
         id="g27">
        <path
           style="fill:#004d50;fill-opacity:1;fill-rule:nonzero;stroke:#004d50;stroke-opacity:1"
           d="M100.703 67.414v91.727h80.516V67.414Zm0 0"
           id="path26" />
      </g>
    </g>
    <g
       clip-path="url(#n)"
       style="fill:#004d50;fill-opacity:1;stroke:#004d50;stroke-opacity:1"
       id="g30">
      <g
         clip-path="url(#o)"
         style="fill:#004d50;fill-opacity:1;stroke:#004d50;stroke-opacity:1"
         id="g29">
        <path
           style="fill:#004d50;fill-opacity:1;fill-rule:nonzero;stroke:#004d50;stroke-opacity:1"
           d="M406.54 67.414v91.719h91.886V67.414Zm0 0"
           id="path28" />
      </g>
    </g>
    <g
       clip-path="url(#p)"
       style="fill:#004d50;fill-opacity:1;stroke:#004d50;stroke-opacity:1"
       id="g32">
      <g
         clip-path="url(#q)"
         style="fill:#004d50;fill-opacity:1;stroke:#004d50;stroke-opacity:1"
         id="g31">
        <path
           style="fill:#004d50;fill-opacity:1;fill-rule:nonzero;stroke:#004d50;stroke-opacity:1"
           d="M592.129 45.703v23.434h23.516V45.703Zm0 0"
           id="path30" />
      </g>
    </g>
    <g
       clip-path="url(#r)"
       style="fill:#004d50;fill-opacity:1;stroke:#004d50;stroke-opacity:1"
       id="g34">
      <g
         clip-path="url(#s)"
         style="fill:#004d50;fill-opacity:1;stroke:#004d50;stroke-opacity:1"
         id="g33">
        <path
           style="fill:#004d50;fill-opacity:1;fill-rule:nonzero;stroke:#004d50;stroke-opacity:1"
           d="M512.16 66.793v172.223h96.77V66.793Zm0 0"
           id="path32" />
      </g>
    </g>
    <path
       style="fill:#000;fill-opacity:0;stroke:#004d50;stroke-width:.399071;stroke-opacity:1"
       d="M126.152 158c-4.81-.7-12.672-2.614-16.226-3.949-4.501-1.69-8.163-3.485-8.163-4 0-.265.97-2.537 2.154-5.049a683 683 0 0 0 3.355-7.214l1.2-2.647 4.328 1.926c15.828 7.044 36.574 7.966 43.432 1.93 2.297-2.022 2.997-3.549 2.997-6.532 0-4.283-2.125-6.725-7.273-8.356-3.177-1.006-4.866-1.333-17.498-3.388-13.137-2.137-19.842-4.729-24.734-9.559-8.893-8.782-8.7-23.497.429-32.754q6.897-6.994 20.112-9.544c6.122-1.181 21.147-1.19 28.027-.015 8.554 1.46 18.435 4.717 18.182 5.994-.064.32-1.589 3.739-3.39 7.598l-3.274 7.017-3.613-1.51c-7.742-3.235-15.632-4.594-24.502-4.221-5.564.233-8.306.776-11.336 2.243-2.126 1.029-4.566 3.378-5.302 5.105-.847 1.989-.69 5.246.351 7.306 1.876 3.709 5.594 5.047 21.65 7.793 12.289 2.101 16.288 3.154 21.28 5.601 4.9 2.403 8.102 5.492 10.282 9.92l1.56 3.173v12.412l-1.47 2.993c-3.768 7.675-11.015 13.427-20.279 16.094-6.364 1.833-10.222 2.267-19.724 2.22-5.113-.024-10.381-.27-12.555-.587z"
       fill="none"
       id="path34" />
    <path
       style="fill:#000;fill-opacity:0;stroke:#004d50;stroke-width:.399071;stroke-opacity:1"
       d="M127.902 157.81c-6.005-.59-15.365-2.989-21.052-5.395-5.429-2.297-5.29-1.403-1.492-9.658l3.285-7.14 3.444 1.482c10.901 4.694 23.246 6.965 32.52 5.982 6.75-.714 10.97-2.455 13.259-5.466 2.479-3.262 2.16-8.155-.714-10.944-2.572-2.495-5.463-3.35-19.473-5.754-16.456-2.825-22.018-4.785-27.096-9.55a21.9 21.9 0 0 1-5.531-8.207c-1.175-3.059-1.396-4.428-1.361-8.461.023-2.774.27-4.212 1.17-6.823 3.245-9.416 11.166-15.433 24.309-18.468 3.842-.887 20.916-1.243 26.52-.553 2.276.28 4.587.527 5.136.547.548.02 1.087.134 1.197.252.167.182 4.751 1.335 7.098 1.787.376.072.729.167.783.212s.235.118.4.164c.517.146 1.82.647 4.09 1.573 1.624.663 2.163 1.077 2.071 1.594-.068.384-1.37 3.286-2.893 6.449s-2.775 5.888-2.782 6.057c-.007.168-.256.627-.554 1.019-.51.673-.767.622-4.623-.933-5.62-2.265-10.656-3.468-16.659-3.976-5.274-.447-11.976-.082-15.388.837-4.171 1.123-8.035 4.255-9.052 7.338-1.065 3.228.413 7.8 3.097 9.576 2.867 1.897 6.563 2.827 23.038 5.798 9.304 1.678 13.713 2.919 18.127 5.102 6.028 2.983 9.411 6.883 11.272 12.996 1.176 3.863.906 9.721-.62 13.43-1.925 4.683-6.085 9.9-9.524 11.945-.823.49-1.496 1.066-1.496 1.28 0 .215-.152.296-.339.181-.186-.115-.725.151-1.197.591s-.858.714-.858.61c0-.105-1.123.317-2.495.937-3.313 1.497-7.632 2.675-12.485 3.407-4.284.645-17.361.748-23.132.181zm141.571.904-3.293-.116v-6.369c0-3.503-.051-6.369-.115-6.369-.063 0-1.304 1.161-2.758 2.58-4.733 4.618-10.566 7.81-17.162 9.392-4.045.97-12.694 1.09-17.143.238-12.64-2.419-23.834-10.269-30.628-21.475-2.175-3.588-4.253-8.703-5.263-12.954-.731-3.079-.808-4.414-.664-11.484.148-7.296.258-8.315 1.25-11.591 4.688-15.489 16.679-27.136 32.377-31.448 2.852-.784 4.127-.875 11.972-.857 8.336.018 8.952.072 12.2 1.075 15.84 4.888 27.507 16.815 31.81 32.516l1.069 3.902.124 26.664.123 26.665-5.303-.127a934 934 0 0 1-8.596-.242zm-22.51-18.575c7.394-2.626 12.78-7.407 16.26-14.432 2.347-4.739 3.094-8.362 2.837-13.768-.914-19.219-19.608-31.718-37.916-25.351-4.073 1.416-6.878 3.24-10.457 6.795-5.517 5.482-8.175 11.968-8.175 19.953 0 10.912 5.539 20.048 15.251 25.158 4.483 2.358 7.63 3 13.881 2.831 4.556-.122 5.84-.305 8.32-1.186z"
       fill="none"
       id="path35" />
    <path
       style="fill:url(#t);fill-opacity:0;stroke:#004d50;stroke-width:.399071;stroke-opacity:1"
       d="m269.473 158.334-2.894-.137-.004-4.871c-.002-2.68-.114-5.536-.248-6.347l-.244-1.476-3.056 2.693c-1.68 1.482-3.917 3.286-4.97 4.01-2.53 1.74-7.847 4.202-10.832 5.014-3.2.87-13.06 1.251-16.96.655-11.403-1.743-22.73-8.81-29.49-18.4-2.755-3.908-4.54-7.478-6.35-12.706l-1.474-4.254.03-9.378.03-9.379 1.257-3.79c3.896-11.742 11.575-20.928 22.237-26.6 7.653-4.071 13.356-5.157 24.734-4.709 5.549.22 6.84.402 9.855 1.399 15.22 5.029 26.067 16.37 30.625 32.015l1.223 4.199v52.359l-5.288-.08c-2.908-.043-6.59-.14-8.18-.217zm-23.67-17.524c2.2-.61 6.436-2.628 8.581-4.085 2.184-1.484 5.52-5.018 7.266-7.696 4.73-7.255 5.942-14.969 3.685-23.452-3.578-13.445-16.951-22.52-30.654-20.801-4.21.527-9.146 2.204-12.087 4.105-3.216 2.079-7.748 6.76-9.6 9.916-4.24 7.225-4.978 17.071-1.89 25.236 3.275 8.658 12.583 16.211 21.45 17.404 3.502.471 10.487.14 13.25-.627z"
       fill="none"
       id="path36" />
    <path
       style="mix-blend-mode:color;fill:#1f2d2a;fill-opacity:0;stroke:#004d50;stroke-width:.399071;stroke-opacity:1"
       d="M273.563 158.387c-.439-.074-2.145-.184-3.791-.245l-2.993-.11-.2-6.054c-.11-3.33-.315-6.17-.457-6.31-.142-.141-1.578.88-3.193 2.27-4.403 3.79-5.622 4.613-9.657 6.524-5.832 2.763-7.71 3.127-16.224 3.15-8.804.025-11.546-.556-18.557-3.93-7.397-3.56-14.006-9.225-18.2-15.603-2.428-3.693-3.094-5.06-5.345-10.975l-1.9-4.988.265-9.485c.259-9.247.296-9.571 1.495-12.97 4.428-12.548 12.737-21.83 24.33-27.179 4.876-2.25 9.183-3.22 15.518-3.497 12.333-.538 19.568 1.338 28.648 7.43 3.272 2.196 9.252 7.766 10.772 10.034l2.265 3.38c1.984 2.96 4.192 8.054 5.553 12.807l1.05 3.667v52.328l-4.29-.055c-2.36-.03-4.65-.115-5.089-.189zm-28.84-17.1c3.23-.685 9.15-3.659 11.63-5.842 4.036-3.552 7.692-9.275 9.28-14.527 1.1-3.638 1.008-11.355-.187-15.545-1.472-5.167-3.368-8.334-7.434-12.42-2.978-2.993-4.241-3.94-7.27-5.455-5.034-2.515-8.616-3.262-14.251-2.974-6.792.349-11.734 2.129-16.403 5.91-6.384 5.168-10.012 11.564-10.98 19.356-.749 6.023.596 13.17 3.37 17.902 3.71 6.332 11.053 11.943 17.757 13.571 2.978.723 11.124.736 14.489.023z"
       fill="none"
       id="path37" />
    <path
       style="fill:#1f2d2a;fill-opacity:0;stroke:#004d50;stroke-width:.399071;stroke-opacity:1"
       d="m484.372 158.715-3.492-.115v-24.145c0-27.53-.02-27.76-3.065-34.07-1.53-3.17-2.371-4.323-5.283-7.234-2.92-2.922-4.053-3.747-7.235-5.274-8.567-4.111-17.17-4.151-25.321-.117-5.913 2.925-10.433 7.446-13.123 13.125-2.656 5.603-2.64 5.417-2.64 32.929v24.817h-17.187l.12-26.838c.12-26.483.133-26.878 1.021-29.946 4.612-15.935 15.993-27.553 31.81-32.475 3.489-1.085 3.844-1.117 12.57-1.108 8.577.01 9.132.057 12.4 1.068 15.84 4.904 27.51 16.835 31.809 32.52l1.07 3.902.123 26.673.124 26.674-5.105-.135a1648 1648 0 0 1-8.596-.251zm-110.029.002-4.404-.112v-12.817l-3.369 3.152c-3.98 3.723-8.487 6.4-13.791 8.191-3.758 1.27-3.86 1.28-11.573 1.273-7.356-.007-7.978-.068-11.352-1.108-8.506-2.624-14.531-6.147-20.2-11.812-5.577-5.572-9.396-11.971-11.804-19.779-1.066-3.456-1.108-3.914-1.117-12.369-.009-8.466.03-8.908 1.093-12.371 2.295-7.484 5.884-13.701 10.996-19.053 3.846-4.025 7.272-6.598 12.031-9.034 7.83-4.009 12.396-4.976 22.383-4.743 6.576.153 7.725.286 10.937 1.263 8.006 2.434 14.34 6.268 20.156 12.2 7.164 7.308 11.435 16.129 12.757 26.35.213 1.647.393 13.818.4 27.047l.012 24.053-4.375-.109zm-25.4-18.033c7.913-2.024 14.376-7.306 18.186-14.862 2.245-4.454 2.946-8.066 2.718-14.014-.16-4.172-.36-5.322-1.42-8.159-3.017-8.078-9.357-14.361-17.268-17.112-10.352-3.6-21.617-1.058-29.499 6.657-4.954 4.849-7.902 11.38-8.286 18.36-.744 13.495 7.962 25.644 20.866 29.121 3.9 1.05 10.615 1.055 14.704.009zm-78.473 17.25-3.492-.133v-3.717c0-5.207-.401-8.623-1.013-8.623-.276 0-2.27 1.45-4.433 3.22-4.328 3.545-10.126 6.667-14.507 7.811-4.027 1.052-16.655.936-20.854-.192-6.778-1.82-14.473-6.38-20.081-11.9-4.63-4.557-7.562-9.17-10.375-16.321l-2.291-5.824.262-9.305c.287-10.208.562-11.689 3.267-17.625 6.425-14.099 19.617-24.045 34.103-25.71 5.045-.581 13.414-.3 17.503.589 5.258 1.141 11.377 4.052 16.025 7.623 8.21 6.308 12.77 12.68 16.41 22.938l1.346 3.792.112 26.837.112 26.838-4.301-.082a502 502 0 0 1-7.793-.216zm-28.034-16.04c5.448-.627 12.334-4.098 15.983-8.058 3.383-3.67 5.961-8.06 7.317-12.46 1.066-3.46 1.166-10.817.206-15.144-1.744-7.862-8.02-15.66-15.432-19.178-4.883-2.317-7.107-2.814-12.464-2.79-7.752.037-12.594 1.627-18.121 5.952-7.272 5.69-11.21 13.756-11.21 22.958 0 10.842 4.305 18.763 13.44 24.727 5.909 3.857 11.652 4.988 20.28 3.994z"
       fill="none"
       id="path38" />
    <path
       style="fill:#1f2d2a;fill-opacity:0;stroke:#004d50;stroke-width:.399071;stroke-opacity:1"
       d="m484.173 158.334-2.893-.137-.006-21.433c-.007-24.24-.296-29.634-1.784-33.354-1.907-4.767-3.489-7.176-6.975-10.626-3.709-3.67-6.847-5.513-12.186-7.159-12.521-3.858-27.06 2.35-33.216 14.184-3.125 6.006-3.016 4.875-3.2 33.181l-.166 25.242h-16.391l.2-26.838c.228-30.572.047-28.852 3.884-36.911 2.615-5.493 5.293-9.258 9.48-13.332 5.441-5.293 11.496-8.934 18.856-11.342 3.327-1.087 3.575-1.109 12.77-1.094l9.379.016 3.753 1.264c10.46 3.526 18.98 9.996 24.769 18.813 2.596 3.954 4.403 7.999 6.054 13.554l1.127 3.79.007 26.24.007 26.239-5.288-.08c-2.908-.043-6.59-.14-8.18-.217z"
       fill="none"
       id="path39" />
  </g>
</svg>
