<?xml version="1.0" encoding="UTF-8" standalone="no"?>
<svg
   width="196.23801"
   height="193.30981"
   viewBox="0 0 196.23801 193.30981"
   version="1.2"
   id="svg39"
   xmlns="http://www.w3.org/2000/svg"
   xmlns:svg="http://www.w3.org/2000/svg">
  <defs
     id="defs19">
    <clipPath
       id="d">
      <path
         d="m 0,67 h 93 v 93 H 0 Z m 0,0"
         id="path1" />
    </clipPath>
    <clipPath
       id="e">
      <path
         d="m 46.3,67.414 q -2.254,0 -4.503,0.223 a 46.3,46.3 0 0 0 -8.832,1.754 47,47 0 0 0 -4.246,1.515 46.2,46.2 0 0 0 -11.566,6.918 45,45 0 0 0 -3.34,3.024 45,45 0 0 0 -3.028,3.336 45,45 0 0 0 -2.687,3.613 47,47 0 0 0 -2.32,3.86 46,46 0 0 0 -1.926,4.07 45.5,45.5 0 0 0 -2.613,8.602 45.4,45.4 0 0 0 -0.883,8.945 45.4,45.4 0 0 0 0.882,8.949 45,45 0 0 0 1.094,4.363 46.4,46.4 0 0 0 3.445,8.309 47,47 0 0 0 2.32,3.859 45,45 0 0 0 2.688,3.613 45,45 0 0 0 3.028,3.336 45,45 0 0 0 3.34,3.024 46.2,46.2 0 0 0 11.566,6.918 47,47 0 0 0 4.246,1.515 46.3,46.3 0 0 0 13.336,1.977 q 2.261,0 4.504,-0.223 2.248,-0.221 4.46,-0.66 a 46,46 0 0 0 4.376,-1.094 45.6,45.6 0 0 0 8.32,-3.441 45,45 0 0 0 3.867,-2.313 46,46 0 0 0 3.625,-2.68 46,46 0 0 0 6.367,-6.359 45.4,45.4 0 0 0 5.004,-7.473 46,46 0 0 0 1.93,-4.07 46,46 0 0 0 1.52,-4.238 q 0.654,-2.155 1.093,-4.363 a 46,46 0 0 0 0.664,-4.453 47,47 0 0 0 0.219,-4.497 q 0.001,-2.249 -0.227,-4.492 a 46,46 0 0 0 -0.664,-4.449 45.4,45.4 0 0 0 -2.62,-8.598 45,45 0 0 0 -1.93,-4.066 45.4,45.4 0 0 0 -5.004,-7.473 46.1,46.1 0 0 0 -9.989,-9.035 47,47 0 0 0 -3.863,-2.316 46,46 0 0 0 -4.074,-1.922 45,45 0 0 0 -4.246,-1.52 45,45 0 0 0 -4.371,-1.097 46.3,46.3 0 0 0 -8.961,-0.89 m 0,74.059 a 28.5,28.5 0 0 1 -5.51,-0.543 28,28 0 0 1 -5.3,-1.605 28,28 0 0 1 -2.506,-1.18 28,28 0 0 1 -2.379,-1.426 28,28 0 0 1 -2.226,-1.649 27,27 0 0 1 -2.055,-1.855 27,27 0 0 1 -1.863,-2.05 28.1,28.1 0 0 1 -4.262,-7.098 28,28 0 0 1 -0.937,-2.606 28.2,28.2 0 0 1 0,-16.371 q 0.406,-1.326 0.933,-2.606 a 28.2,28.2 0 0 1 6.125,-9.148 29,29 0 0 1 2.055,-1.86 28.1,28.1 0 0 1 7.113,-4.254 29,29 0 0 1 2.61,-0.933 29,29 0 0 1 2.691,-0.672 c 0.906,-0.18 1.82,-0.312 2.742,-0.406 0.918,-0.09 1.844,-0.133 2.77,-0.133 q 1.387,-10e-4 2.77,0.133 1.376,0.14 2.742,0.406 1.358,0.272 2.687,0.672 1.331,0.405 2.61,0.934 a 28.2,28.2 0 0 1 9.167,6.113 27.7,27.7 0 0 1 3.512,4.273 q 0.775,1.151 1.426,2.371 a 28,28 0 0 1 2.12,5.11 q 0.404,1.324 0.673,2.683 a 28.2,28.2 0 0 1 0.406,8.266 29,29 0 0 1 -0.41,2.734 q -0.27,1.36 -0.676,2.684 -0.406,1.324 -0.933,2.602 -0.532,1.282 -1.188,2.5 a 28,28 0 0 1 -4.937,6.644 29,29 0 0 1 -2.055,1.86 28.5,28.5 0 0 1 -7.105,4.254 28.4,28.4 0 0 1 -5.297,1.609 q -1.36,0.27 -2.743,0.406 -1.381,0.14 -2.77,0.14 m 0,0"
         id="path2" />
    </clipPath>
    <clipPath
       id="f">
      <path
         d="m 616,67 h 92.5 v 93 H 616 Z m 0,0"
         id="path3" />
    </clipPath>
    <clipPath
       id="g">
      <path
         d="m 662.453,67.414 a 46.5,46.5 0 0 0 -8.965,0.883 46,46 0 0 0 -4.375,1.094 46,46 0 0 0 -8.32,3.441 45,45 0 0 0 -3.867,2.313 46,46 0 0 0 -3.625,2.68 46,46 0 0 0 -6.367,6.359 45.4,45.4 0 0 0 -5.004,7.473 46,46 0 0 0 -1.93,4.07 45.5,45.5 0 0 0 -2.613,8.602 46,46 0 0 0 -0.664,4.452 47,47 0 0 0 -0.22,4.492 q 10e-4,2.257 0.22,4.497 a 46,46 0 0 0 1.757,8.816 46,46 0 0 0 1.52,4.238 45,45 0 0 0 1.93,4.07 45.4,45.4 0 0 0 5.004,7.473 45,45 0 0 0 3.027,3.336 45,45 0 0 0 3.34,3.024 45.6,45.6 0 0 0 7.492,4.992 45,45 0 0 0 4.074,1.926 47,47 0 0 0 4.246,1.515 q 2.162,0.655 4.375,1.094 a 46.3,46.3 0 0 0 8.965,0.883 q 2.256,0 4.5,-0.223 c 1.5,-0.148 2.984,-0.367 4.461,-0.66 a 46,46 0 0 0 4.375,-1.094 47,47 0 0 0 4.246,-1.515 45,45 0 0 0 4.074,-1.926 45.6,45.6 0 0 0 7.493,-4.992 45,45 0 0 0 3.34,-3.024 45,45 0 0 0 3.027,-3.336 45.4,45.4 0 0 0 5.004,-7.473 45,45 0 0 0 1.93,-4.07 46,46 0 0 0 1.519,-4.238 q 0.654,-2.155 1.094,-4.363 a 46,46 0 0 0 0.664,-4.453 q 0.217,-2.24 0.218,-4.497 a 45.5,45.5 0 0 0 -0.89,-8.941 45.4,45.4 0 0 0 -2.621,-8.598 46,46 0 0 0 -1.926,-4.066 47,47 0 0 0 -2.32,-3.86 46,46 0 0 0 -2.688,-3.613 45,45 0 0 0 -3.027,-3.332 45,45 0 0 0 -3.34,-3.023 47,47 0 0 0 -3.617,-2.68 45,45 0 0 0 -3.867,-2.312 45,45 0 0 0 -4.075,-1.926 46,46 0 0 0 -4.242,-1.52 47,47 0 0 0 -4.37,-1.097 46.3,46.3 0 0 0 -8.962,-0.89 m 0,74.059 a 28.5,28.5 0 0 1 -5.512,-0.543 c -0.91,-0.18 -1.804,-0.403 -2.691,-0.672 a 27,27 0 0 1 -2.61,-0.934 28,28 0 0 1 -2.507,-1.18 q -1.225,-0.654 -2.38,-1.425 a 28,28 0 0 1 -2.226,-1.649 29,29 0 0 1 -2.054,-1.855 29,29 0 0 1 -1.864,-2.05 28.4,28.4 0 0 1 -4.261,-7.099 28,28 0 0 1 -0.934,-2.605 28,28 0 0 1 -0.672,-2.684 28,28 0 0 1 -0.41,-2.738 q -0.134,-1.377 -0.133,-2.766 -10e-4,-1.383 0.133,-2.761 c 0.094,-0.922 0.227,-1.832 0.406,-2.739 a 28.7,28.7 0 0 1 1.61,-5.289 c 0.355,-0.855 0.75,-1.687 1.183,-2.504 0.438,-0.812 0.914,-1.605 1.426,-2.37 a 29,29 0 0 1 1.652,-2.223 27,27 0 0 1 1.864,-2.051 28,28 0 0 1 4.28,-3.508 28,28 0 0 1 2.38,-1.422 29,29 0 0 1 2.504,-1.183 29,29 0 0 1 2.613,-0.934 29,29 0 0 1 2.688,-0.672 c 0.906,-0.18 1.82,-0.312 2.742,-0.406 q 1.381,-0.134 2.77,-0.133 1.387,-10e-4 2.769,0.133 1.383,0.14 2.742,0.406 1.36,0.272 2.691,0.672 1.325,0.405 2.61,0.934 a 28.23,28.23 0 0 1 15.289,15.261 q 0.534,1.28 0.933,2.606 0.405,1.324 0.676,2.683 a 28,28 0 0 1 0.543,5.5 28.4,28.4 0 0 1 -0.55,5.5 q -0.271,1.36 -0.676,2.684 -0.4,1.324 -0.934,2.602 -0.532,1.282 -1.188,2.5 -0.651,1.222 -1.425,2.375 a 28,28 0 0 1 -3.512,4.27 28.7,28.7 0 0 1 -4.277,3.508 q -1.155,0.765 -2.38,1.42 -1.22,0.651 -2.503,1.184 a 29,29 0 0 1 -5.297,1.61 q -1.359,0.27 -2.742,0.406 -1.377,0.14 -2.766,0.14 m 0,0"
         id="path4" />
    </clipPath>
    <clipPath
       id="h">
      <path
         d="m 191,67 h 93 v 93 h -93 z m 0,0"
         id="path5" />
    </clipPath>
    <clipPath
       id="i">
      <path
         d="m 237.785,67.414 a 46,46 0 0 0 -4.515,0.207 q -2.254,0.21 -4.473,0.645 -2.224,0.432 -4.39,1.082 a 46.3,46.3 0 0 0 -8.352,3.422 46,46 0 0 0 -7.524,4.992 45.5,45.5 0 0 0 -6.398,6.36 46,46 0 0 0 -8.492,15.808 46,46 0 0 0 -1.098,4.375 45.6,45.6 0 0 0 0,17.938 q 0.44,2.215 1.098,4.378 a 45.7,45.7 0 0 0 5.797,12.187 47,47 0 0 0 2.695,3.622 47,47 0 0 0 3.043,3.336 46,46 0 0 0 6.992,5.703 47,47 0 0 0 3.887,2.308 45,45 0 0 0 4.09,1.918 46,46 0 0 0 4.261,1.508 c 1.446,0.434 2.906,0.793 4.39,1.082 q 2.22,0.434 4.474,0.645 2.251,0.212 4.515,0.203 c 4.078,0 18.09,-0.961 28.25,-13.246 v 13.246 h 17.695 v -45.86 a 46.3,46.3 0 0 0 -0.89,-8.941 47,47 0 0 0 -1.098,-4.363 46.3,46.3 0 0 0 -3.453,-8.301 45.4,45.4 0 0 0 -5.004,-7.473 46.1,46.1 0 0 0 -9.984,-9.035 47,47 0 0 0 -3.867,-2.312 45,45 0 0 0 -4.075,-1.926 46,46 0 0 0 -4.242,-1.52 47,47 0 0 0 -4.37,-1.097 46.3,46.3 0 0 0 -8.962,-0.89 m 0,74.059 a 28.5,28.5 0 0 1 -5.512,-0.543 c -0.91,-0.18 -1.804,-0.403 -2.691,-0.672 a 28,28 0 0 1 -2.61,-0.934 28,28 0 0 1 -2.507,-1.18 q -1.225,-0.654 -2.38,-1.425 a 28,28 0 0 1 -2.226,-1.649 29,29 0 0 1 -2.054,-1.855 29,29 0 0 1 -1.864,-2.05 28.4,28.4 0 0 1 -4.261,-7.099 30,30 0 0 1 -0.934,-2.605 28,28 0 0 1 -0.672,-2.684 28,28 0 0 1 -0.41,-2.738 q -0.134,-1.377 -0.133,-2.766 -0.001,-1.383 0.133,-2.761 c 0.094,-0.922 0.227,-1.832 0.406,-2.739 a 28.7,28.7 0 0 1 1.61,-5.289 c 0.355,-0.855 0.75,-1.687 1.183,-2.504 0.438,-0.812 0.914,-1.605 1.426,-2.37 a 29,29 0 0 1 1.652,-2.223 27,27 0 0 1 1.864,-2.051 28,28 0 0 1 4.28,-3.508 28,28 0 0 1 2.38,-1.422 29,29 0 0 1 2.504,-1.183 29,29 0 0 1 2.613,-0.934 29,29 0 0 1 2.688,-0.672 c 0.906,-0.18 1.824,-0.312 2.742,-0.406 q 1.381,-0.134 2.77,-0.133 1.387,-10e-4 2.769,0.133 1.383,0.14 2.742,0.406 1.363,0.272 2.691,0.672 1.325,0.405 2.61,0.934 a 28.23,28.23 0 0 1 12.68,10.386 q 0.768,1.151 1.425,2.371 a 28,28 0 0 1 1.184,2.504 q 0.534,1.28 0.933,2.606 0.406,1.324 0.676,2.683 a 28,28 0 0 1 0.543,5.5 q 0,1.389 -0.14,2.766 -0.136,1.376 -0.407,2.734 -0.276,1.36 -0.676,2.684 -0.404,1.324 -0.937,2.602 -0.532,1.282 -1.187,2.5 -0.653,1.222 -1.422,2.375 a 28.7,28.7 0 0 1 -3.516,4.27 28,28 0 0 1 -6.656,4.929 q -1.22,0.65 -2.504,1.183 a 29,29 0 0 1 -5.297,1.61 q -1.36,0.27 -2.738,0.406 -1.382,0.14 -2.77,0.14 m 0,0"
         id="path6" />
    </clipPath>
    <clipPath
       id="j">
      <path
         d="m 295,67 h 93 v 93 h -93 z m 0,0"
         id="path7" />
    </clipPath>
    <clipPath
       id="k">
      <path
         d="m 341.684,67.414 q -2.25,0.011 -4.489,0.238 a 46.1,46.1 0 0 0 -13.039,3.305 46,46 0 0 0 -4.058,1.934 45.6,45.6 0 0 0 -7.457,5 q -1.74,1.43 -3.329,3.02 a 47,47 0 0 0 -3.015,3.331 46,46 0 0 0 -2.672,3.61 46,46 0 0 0 -2.309,3.855 47,47 0 0 0 -1.918,4.059 46,46 0 0 0 -2.602,8.586 45,45 0 0 0 -0.655,4.437 45.3,45.3 0 0 0 0,8.969 q 0.216,2.238 0.656,4.441 a 46,46 0 0 0 1.09,4.356 45,45 0 0 0 1.511,4.226 47,47 0 0 0 1.918,4.063 46.3,46.3 0 0 0 4.98,7.46 46,46 0 0 0 9.95,9.04 46,46 0 0 0 3.852,2.316 q 1.982,1.068 4.058,1.93 a 47,47 0 0 0 4.23,1.527 q 2.157,0.659 4.36,1.106 a 46,46 0 0 0 4.45,0.675 q 2.237,0.228 4.488,0.235 c 4.082,0 18.093,-0.961 28.253,-13.246 v 13.246 h 17.696 v -45.86 q -0.002,-2.249 -0.227,-4.492 a 46,46 0 0 0 -0.664,-4.449 47,47 0 0 0 -1.097,-4.363 45,45 0 0 0 -1.524,-4.235 45,45 0 0 0 -1.93,-4.066 45.4,45.4 0 0 0 -5.004,-7.473 46,46 0 0 0 -6.367,-6.355 47,47 0 0 0 -3.62,-2.68 46,46 0 0 0 -3.864,-2.312 46,46 0 0 0 -4.074,-1.926 45,45 0 0 0 -4.246,-1.52 45,45 0 0 0 -4.371,-1.097 46.3,46.3 0 0 0 -8.961,-0.89 m 0,17.664 c 0.925,0 1.851,0.043 2.77,0.137 q 1.38,0.133 2.745,0.402 c 0.906,0.184 1.805,0.406 2.688,0.676 q 1.33,0.4 2.613,0.93 1.278,0.533 2.504,1.183 1.225,0.656 2.379,1.422 1.155,0.772 2.226,1.649 a 27,27 0 0 1 2.055,1.859 27,27 0 0 1 1.863,2.05 29,29 0 0 1 1.653,2.223 q 0.771,1.15 1.425,2.375 a 27.6,27.6 0 0 1 2.122,5.106 28.2,28.2 0 0 1 0,16.371 q -0.405,1.323 -0.934,2.605 -0.533,1.28 -1.188,2.5 a 28.4,28.4 0 0 1 -3.074,4.598 q -0.884,1.072 -1.863,2.05 -0.983,0.978 -2.055,1.856 a 28,28 0 0 1 -2.226,1.649 28,28 0 0 1 -4.887,2.61 28,28 0 0 1 -2.61,0.929 q -1.328,0.403 -2.687,0.672 a 28.4,28.4 0 0 1 -8.281,0.406 27,27 0 0 1 -2.742,-0.406 q -1.363,-0.27 -2.692,-0.672 a 28,28 0 0 1 -5.117,-2.113 q -1.225,-0.655 -2.379,-1.422 a 29,29 0 0 1 -2.226,-1.649 28,28 0 0 1 -3.914,-3.91 28,28 0 0 1 -3.078,-4.598 28,28 0 0 1 -1.188,-2.5 29,29 0 0 1 -0.934,-2.605 28.2,28.2 0 0 1 -1.078,-10.95 q 0.14,-1.374 0.41,-2.734 0.274,-1.359 0.676,-2.683 a 28.4,28.4 0 0 1 3.547,-7.477 28.7,28.7 0 0 1 3.512,-4.27 29,29 0 0 1 2.054,-1.859 29,29 0 0 1 2.227,-1.649 28,28 0 0 1 2.375,-1.422 27,27 0 0 1 2.504,-1.184 27,27 0 0 1 2.61,-0.933 q 1.328,-0.405 2.687,-0.676 1.359,-0.27 2.742,-0.41 c 0.918,-0.09 1.844,-0.137 2.766,-0.137 m 0,0"
         id="path8" />
    </clipPath>
    <clipPath
       id="l">
      <path
         d="m 101,67 h 81 v 93 h -81 z m 0,0"
         id="path9" />
    </clipPath>
    <clipPath
       id="m">
      <path
         d="m 148.39,106.2 -2.5,-0.41 c -7.027,-1.067 -12.035,-2.177 -15.312,-3.392 -4.973,-1.832 -6.015,-5.351 -6.015,-7.976 0,-2.285 0.93,-5.531 5.382,-8.016 3.215,-1.804 7.797,-2.683 14.008,-2.683 a 56.3,56.3 0 0 1 12.242,1.273 56.2,56.2 0 0 1 11.676,3.887 l 2.024,0.933 7.28,-15.523 -2.066,-0.934 a 60.5,60.5 0 0 0 -11.941,-3.832 89,89 0 0 0 -19.215,-2.113 c -11.629,0 -32.156,2.344 -38.976,18.035 -4.274,9.82 -1.711,21.34 6.093,27.395 7.434,5.777 17.715,7.332 26.778,8.703 l 0.46,0.074 c 6.684,0.828 11.54,1.828 14.848,3.047 4.973,1.844 6.02,5.168 6.02,7.637 0,6.984 -6.465,10.523 -19.211,10.523 a 68.2,68.2 0 0 1 -15.125,-1.86 68.4,68.4 0 0 1 -14.34,-5.152 l -2.066,-1.046 -7.286,15.652 1.915,0.98 a 66,66 0 0 0 13.671,4.946 88.7,88.7 0 0 0 22.184,2.785 c 8.832,0 16.55,-1.211 22.937,-3.59 8.125,-3.031 14.942,-9.441 17.793,-16.73 q 0.851,-2.111 1.227,-4.356 c 0.254,-1.492 0.344,-3 0.266,-4.512 a 21,21 0 0 0 -2.363,-8.68 C 173.16,110.2 160,108.076 148.39,106.2 m 0,0"
         id="path10" />
    </clipPath>
    <clipPath
       id="n">
      <path
         d="m 406,67 h 93 v 93 h -93 z m 0,0"
         id="path11" />
    </clipPath>
    <clipPath
       id="o">
      <path
         d="m 452.48,67.414 a 46.3,46.3 0 0 0 -13.332,1.988 46,46 0 0 0 -4.242,1.52 46,46 0 0 0 -4.074,1.926 47,47 0 0 0 -3.863,2.312 48,48 0 0 0 -3.621,2.68 46,46 0 0 0 -6.368,6.355 47,47 0 0 0 -2.683,3.614 47,47 0 0 0 -2.32,3.859 47,47 0 0 0 -1.93,4.066 46,46 0 0 0 -1.52,4.235 46.3,46.3 0 0 0 -1.766,8.813 46,46 0 0 0 -0.222,4.491 v 45.86 h 17.695 v -45.86 a 28,28 0 0 1 0.121,-2.773 28.3,28.3 0 0 1 1.06,-5.441 q 0.397,-1.332 0.925,-2.618 a 28.4,28.4 0 0 1 4.254,-7.132 27,27 0 0 1 1.863,-2.063 28,28 0 0 1 2.055,-1.871 28.7,28.7 0 0 1 4.613,-3.09 q 1.228,-0.655 2.516,-1.187 1.281,-0.538 2.617,-0.942 c 0.887,-0.27 1.785,-0.492 2.695,-0.676 a 28.4,28.4 0 0 1 5.531,-0.542 28.5,28.5 0 0 1 8.227,1.219 q 1.33,0.403 2.617,0.94 1.285,0.532 2.512,1.188 a 28,28 0 0 1 2.383,1.434 28,28 0 0 1 4.289,3.527 28,28 0 0 1 1.86,2.063 28,28 0 0 1 3.074,4.617 28.3,28.3 0 0 1 2.105,5.133 q 0.399,1.33 0.664,2.695 a 28.3,28.3 0 0 1 0.52,5.52 v 45.859 h 17.69 v -45.86 q 0.002,-2.249 -0.226,-4.492 a 45,45 0 0 0 -0.664,-4.449 45.4,45.4 0 0 0 -2.62,-8.598 46,46 0 0 0 -1.927,-4.066 47,47 0 0 0 -2.32,-3.86 46.3,46.3 0 0 0 -5.711,-6.945 47,47 0 0 0 -3.34,-3.02 47,47 0 0 0 -3.62,-2.683 46,46 0 0 0 -3.868,-2.312 45,45 0 0 0 -4.07,-1.926 46.4,46.4 0 0 0 -8.617,-2.617 46.3,46.3 0 0 0 -8.962,-0.89 m 0,0"
         id="path12" />
    </clipPath>
    <clipPath
       id="p">
      <path
         d="m 592,45.703 h 24 V 70 h -24 z m 0,0"
         id="path13" />
    </clipPath>
    <clipPath
       id="q">
      <path
         d="m 610.55,47.79 a 12,12 0 0 0 -2.01,-1.118 12,12 0 0 0 -2.188,-0.703 11.8,11.8 0 0 0 -4.579,-0.074 q -1.137,0.204 -2.21,0.632 -1.08,0.422 -2.047,1.047 c -0.649,0.418 -1.25,0.89 -1.805,1.426 a 12,12 0 0 0 -1.484,1.754 11.6,11.6 0 0 0 -1.825,4.191 11.8,11.8 0 0 0 -0.074,4.567 c 0.14,0.758 0.348,1.492 0.633,2.21 q 0.423,1.073 1.05,2.04 a 12,12 0 0 0 1.43,1.8 q 0.805,0.827 1.754,1.485 a 11.6,11.6 0 0 0 2.012,1.113 q 1.061,0.458 2.191,0.703 a 11.8,11.8 0 0 0 4.575,0.075 11.6,11.6 0 0 0 2.215,-0.633 11.5,11.5 0 0 0 2.042,-1.047 q 0.973,-0.627 1.805,-1.43 a 12,12 0 0 0 1.485,-1.75 q 0.667,-0.944 1.128,-2.004 a 11.6,11.6 0 0 0 0.715,-2.183 11.6,11.6 0 0 0 0.266,-2.286 q 0.024,-1.156 -0.188,-2.289 a 11.4,11.4 0 0 0 -0.632,-2.21 12,12 0 0 0 -1.055,-2.044 12,12 0 0 0 -1.441,-1.796 11.6,11.6 0 0 0 -1.762,-1.477 m 0,0"
         id="path14" />
    </clipPath>
    <clipPath
       id="r">
      <path
         d="m 512,66 h 97 v 173.016 h -97 z m 0,0"
         id="path15" />
    </clipPath>
    <clipPath
       id="s">
      <path
         d="m 584.441,153.32 -36.726,-21.746 -2.266,-1.363 c -7.648,-4.598 -12.21,-12.422 -12.21,-20.934 0,-13.66 11.73,-24.777 26.148,-24.777 14.422,0 26.148,11.117 26.148,24.781 0,9.223 -5.312,17.434 -13.734,21.73 l 17.21,9.946 c 9.563,-8.012 15.208,-19.422 15.208,-31.676 0,-23.43 -20.114,-42.488 -44.832,-42.488 -24.719,0 -44.836,19.055 -44.836,42.488 0,15.2 8.691,29.34 22.601,36.871 l 37.453,22.11 1.797,1.082 c 8.7,5.23 13.895,14.129 13.895,23.812 0,15.547 -13.352,28.196 -29.754,28.196 -16.406,0 -29.75,-12.645 -29.75,-28.196 0,-10.988 7.004,-21.039 17.52,-25.582 L 530.609,157.27 c -11.59,8.68 -18.449,21.793 -18.449,35.886 0,25.29 21.703,45.86 48.383,45.86 26.676,0 48.387,-20.57 48.387,-45.86 0,-16.441 -9.371,-31.664 -24.489,-39.836 m 0,0"
         id="path16" />
    </clipPath>
  </defs>
  <g
     style="fill:#382e47;fill-opacity:1;stroke:none;stroke-opacity:1"
     id="g39"
     transform="translate(-512.16,-45.706188)">
    <g
       clip-path="url(#d)"
       style="fill:#004d50;fill-opacity:1;stroke:none;stroke-opacity:1"
       id="g20">
      <g
         clip-path="url(#e)"
         style="fill:#004d50;fill-opacity:1;stroke:none;stroke-opacity:1"
         id="g19" />
    </g>
    <g
       clip-path="url(#f)"
       style="fill:#004d50;fill-opacity:1;stroke:none;stroke-opacity:1"
       id="g22">
      <g
         clip-path="url(#g)"
         style="fill:#004d50;fill-opacity:1;stroke:none;stroke-opacity:1"
         id="g21">
        <path
           style="fill:#000000;fill-opacity:1;fill-rule:nonzero;stroke:none;stroke-opacity:1"
           d="m 616.504,67.414 v 91.723 h 91.894 V 67.414 Z m 0,0"
           id="path20" />
      </g>
    </g>
    <g
       clip-path="url(#h)"
       style="fill:#004d50;fill-opacity:1;stroke:none;stroke-opacity:1"
       id="g24">
      <g
         clip-path="url(#i)"
         style="fill:#004d50;fill-opacity:1;stroke:none;stroke-opacity:1"
         id="g23" />
    </g>
    <g
       clip-path="url(#j)"
       style="fill:#004d50;fill-opacity:1;stroke:none;stroke-opacity:1"
       id="g26">
      <g
         clip-path="url(#k)"
         style="fill:#004d50;fill-opacity:1;stroke:none;stroke-opacity:1"
         id="g25" />
    </g>
    <g
       clip-path="url(#l)"
       style="fill:#004d50;fill-opacity:1;stroke:none;stroke-opacity:1"
       id="g28">
      <g
         clip-path="url(#m)"
         style="fill:#004d50;fill-opacity:1;stroke:none;stroke-opacity:1"
         id="g27" />
    </g>
    <g
       clip-path="url(#n)"
       style="fill:#004d50;fill-opacity:1;stroke:none;stroke-opacity:1"
       id="g30">
      <g
         clip-path="url(#o)"
         style="fill:#004d50;fill-opacity:1;stroke:none;stroke-opacity:1"
         id="g29" />
    </g>
    <g
       clip-path="url(#p)"
       style="fill:#004d50;fill-opacity:1;stroke:none;stroke-opacity:1"
       id="g32">
      <g
         clip-path="url(#q)"
         style="fill:#004d50;fill-opacity:1;stroke:none;stroke-opacity:1"
         id="g31">
        <path
           style="fill:#000000;fill-opacity:1;fill-rule:nonzero;stroke:none;stroke-opacity:1"
           d="m 592.129,45.703 v 23.434 h 23.516 V 45.703 Z m 0,0"
           id="path30" />
      </g>
    </g>
    <g
       clip-path="url(#r)"
       style="fill:#004d50;fill-opacity:1;stroke:none;stroke-opacity:1"
       id="g34">
      <g
         clip-path="url(#s)"
         style="fill:#004d50;fill-opacity:1;stroke:none;stroke-opacity:1"
         id="g33">
        <path
           style="fill:#000000;fill-opacity:1;fill-rule:nonzero;stroke:none;stroke-opacity:1"
           d="m 512.16,66.793 v 172.223 h 96.77 V 66.793 Z"
           id="path32" />
      </g>
    </g>
  </g>
</svg>
